<?xml version="1.0" encoding="UTF-8" standalone="no"?>
<!-- Created with Inkscape (http://www.inkscape.org/) -->

<svg
   width="100"
   height="100"
   viewBox="0 0 26.458332 26.458334"
   version="1.1"
   id="svg5"
   inkscape:version="1.1.2 (0a00cf5339, 2022-02-04, custom)"
   sodipodi:docname="clef.svg"
   xmlns:inkscape="http://www.inkscape.org/namespaces/inkscape"
   xmlns:sodipodi="http://sodipodi.sourceforge.net/DTD/sodipodi-0.dtd"
   xmlns="http://www.w3.org/2000/svg"
   xmlns:svg="http://www.w3.org/2000/svg">
  <sodipodi:namedview
     id="namedview7"
     pagecolor="#ffffff"
     bordercolor="#666666"
     borderopacity="1.0"
     inkscape:pageshadow="2"
     inkscape:pageopacity="0.0"
     inkscape:pagecheckerboard="0"
     inkscape:document-units="mm"
     showgrid="false"
     units="px"
     inkscape:zoom="5.5507884"
     inkscape:cx="45.849343"
     inkscape:cy="50.443285"
     inkscape:window-width="1600"
     inkscape:window-height="837"
     inkscape:window-x="-8"
     inkscape:window-y="-8"
     inkscape:window-maximized="1"
     inkscape:current-layer="layer1"
     width="100px" />
  <defs
     id="defs2" />
  <g
     inkscape:label="Calque 1"
     inkscape:groupmode="layer"
     id="layer1">
    <path
       id="rect844"
       style="fill:#f8edea;fill-opacity:1;stroke-width:1.97831"
       d="M 45 0 L 45 5 C 35.000001 5 4.7369516e-15 15 0 15 L 0 25 C 0 25 35.000001 35 45 35 L 45 70 L 40 70 L 40 100 L 60 100 L 60 70 L 55 70 L 55 35 C 64.999999 35 100 25 100 25 L 100 15 C 100 15 64.999999 5 55 5 L 55 0 L 45 0 z M 50.017578 10 A 4.9999994 4.9999997 0 0 1 55 15 L 55 15.068359 A 4.9999994 4.9999997 0 0 1 49.949219 20 A 4.9999994 4.9999997 0 0 1 45 14.966797 A 4.9999994 4.9999997 0 0 1 50.017578 10 z "
       transform="scale(0.26458333)" />
  </g>
</svg>
