<?xml version="1.0" encoding="UTF-8" standalone="no"?>
<!-- Created with Inkscape (http://www.inkscape.org/) -->

<svg
   width="100"
   height="100"
   viewBox="0 0 26.458332 26.458334"
   version="1.1"
   id="svg5"
   inkscape:version="1.1.2 (0a00cf5339, 2022-02-04, custom)"
   sodipodi:docname="compte.svg"
   xmlns:inkscape="http://www.inkscape.org/namespaces/inkscape"
   xmlns:sodipodi="http://sodipodi.sourceforge.net/DTD/sodipodi-0.dtd"
   xmlns="http://www.w3.org/2000/svg"
   xmlns:svg="http://www.w3.org/2000/svg">
  <sodipodi:namedview
     id="namedview7"
     pagecolor="#ffffff"
     bordercolor="#666666"
     borderopacity="1.0"
     inkscape:pageshadow="2"
     inkscape:pageopacity="0.0"
     inkscape:pagecheckerboard="0"
     inkscape:document-units="mm"
     showgrid="false"
     units="px"
     inkscape:zoom="4.6395623"
     inkscape:cx="48.81926"
     inkscape:cy="46.125041"
     inkscape:window-width="1600"
     inkscape:window-height="837"
     inkscape:window-x="-8"
     inkscape:window-y="-8"
     inkscape:window-maximized="1"
     inkscape:current-layer="layer1"
     width="100px" />
  <defs
     id="defs2" />
  <g
     inkscape:label="Calque 1"
     inkscape:groupmode="layer"
     id="layer1">
    <path
       id="path29"
       style="fill:#f8edea;stroke-width:1;fill-opacity:1"
       d="M 13.273519,7.3926166e-5 A 13.229291,13.229049 0 0 0 3.0317932e-4,13.139723 13.229291,13.229049 0 0 0 13.095233,26.457655 a 13.229291,13.229049 0 0 0 13.3621,-13.05025 l 0.001,-0.178282 A 13.229291,13.229049 0 0 0 13.273519,7.3926166e-5 Z M 13.269419,1.3229787 A 11.90636,11.906143 0 0 1 25.135438,13.229123 l -0.001,0.160712 a 11.90636,11.906143 0 0 1 -3.096997,7.840795 9.9219661,9.9217863 0 0 0 -1.815927,-2.473212 9.9219661,9.9217863 0 0 0 -14.0080613,0.02377 l -0.094052,0.09508 A 9.9219661,9.9217863 0 0 0 4.4243638,21.240965 11.90636,11.906143 0 0 1 1.3232322,13.149025 11.90636,11.906143 0 0 1 13.269385,1.3229787 Z M 13.24458,3.9687886 A 4.6302518,4.6301673 0 0 0 8.598825,8.5679499 4.6302518,4.6301673 0 0 0 13.18205,13.229123 4.6302518,4.6301673 0 0 0 17.858811,8.6614835 l 5.17e-4,-0.062527 A 4.6302518,4.6301673 0 0 0 13.24458,3.9687886 Z" />
  </g>
</svg>
