<?xml version="1.0" encoding="UTF-8" standalone="no"?>
<!-- Created with Inkscape (http://www.inkscape.org/) -->

<svg
   width="100"
   height="100"
   viewBox="0 0 26.458332 26.458334"
   version="1.1"
   id="svg5"
   inkscape:version="1.1.2 (0a00cf5339, 2022-02-04, custom)"
   sodipodi:docname="compte-female.svg"
   xmlns:inkscape="http://www.inkscape.org/namespaces/inkscape"
   xmlns:sodipodi="http://sodipodi.sourceforge.net/DTD/sodipodi-0.dtd"
   xmlns="http://www.w3.org/2000/svg"
   xmlns:svg="http://www.w3.org/2000/svg">
  <sodipodi:namedview
     id="namedview7"
     pagecolor="#ffffff"
     bordercolor="#666666"
     borderopacity="1.0"
     inkscape:pageshadow="2"
     inkscape:pageopacity="0.0"
     inkscape:pagecheckerboard="0"
     inkscape:document-units="mm"
     showgrid="false"
     units="px"
     inkscape:zoom="9.2791246"
     inkscape:cx="51.244058"
     inkscape:cy="55.393156"
     inkscape:window-width="1600"
     inkscape:window-height="837"
     inkscape:window-x="-8"
     inkscape:window-y="-8"
     inkscape:window-maximized="1"
     inkscape:current-layer="layer1"
     width="100px" />
  <defs
     id="defs2" />
  <g
     inkscape:label="Calque 1"
     inkscape:groupmode="layer"
     id="layer1">
    <path
       id="path30"
       style="fill:#f8edea;stroke-width:1"
       d="M 13.273519,7.3926169e-5 A 13.229291,13.229049 0 0 0 3.031771e-4,13.139723 13.229291,13.229049 0 0 0 13.095233,26.457655 a 13.229291,13.229049 0 0 0 13.3621,-13.05025 l 0.001,-0.178283 A 13.229291,13.229049 0 0 0 13.273519,7.3926169e-5 Z M 13.269419,1.3229788 A 11.90636,11.906143 0 0 1 25.135437,13.229122 l -0.001,0.160713 a 11.90636,11.906143 0 0 1 -3.097548,7.840278 9.9219677,9.9217866 0 0 0 -0.04496,-0.08733 9.9219677,9.9217866 0 0 0 -0.122475,-0.22324 9.9219677,9.9217866 0 0 0 -0.128159,-0.220656 9.9219677,9.9217866 0 0 0 -0.133843,-0.21704 9.9219677,9.9217866 0 0 0 -0.139527,-0.213421 9.9219677,9.9217866 0 0 0 -0.144696,-0.209804 9.9219677,9.9217866 0 0 0 -0.149863,-0.206188 9.9219677,9.9217866 0 0 0 -0.155548,-0.202053 9.9219677,9.9217866 0 0 0 -0.160198,-0.197919 9.9219677,9.9217866 0 0 0 -0.165883,-0.194302 9.9219677,9.9217866 0 0 0 -0.170533,-0.189134 9.9219677,9.9217866 0 0 0 -0.175185,-0.185516 9.9219677,9.9217866 0 0 0 -0.179835,-0.180349 9.9219677,9.9217866 0 0 0 -0.184487,-0.176216 9.9219677,9.9217866 0 0 0 -0.189138,-0.171047 9.9219677,9.9217866 0 0 0 -0.193271,-0.16588 9.9219677,9.9217866 0 0 0 -0.197406,-0.161229 9.9219677,9.9217866 0 0 0 -0.201541,-0.156062 9.9219677,9.9217866 0 0 0 -0.205673,-0.150894 9.9219677,9.9217866 0 0 0 -0.209291,-0.145208 9.9219677,9.9217866 0 0 0 -0.213426,-0.140043 9.9219677,9.9217866 0 0 0 -0.216526,-0.134874 9.9219677,9.9217866 0 0 0 -0.219627,-0.128673 9.9219677,9.9217866 0 0 0 -0.223245,-0.122989 9.9219677,9.9217866 0 0 0 -0.226345,-0.117822 9.9219677,9.9217866 0 0 0 -0.229445,-0.11162 9.9219677,9.9217866 0 0 0 -0.23203,-0.105419 9.9219677,9.9217866 0 0 0 -0.234612,-0.09974 9.9219677,9.9217866 0 0 0 -0.237197,-0.09353 9.9219677,9.9217866 0 0 0 -0.239265,-0.08733 9.9219677,9.9217866 0 0 0 -0.241331,-0.08165 9.9219677,9.9217866 0 0 0 -0.243915,-0.07493 9.9219677,9.9217866 0 0 0 -0.245465,-0.06873 9.9219677,9.9217866 0 0 0 -0.247016,-0.06253 9.9219677,9.9217866 0 0 0 -0.249083,-0.05581 9.9219677,9.9217866 0 0 0 -0.249599,-0.05013 9.9219677,9.9217866 0 0 0 -0.251667,-0.04289 9.9219677,9.9217866 0 0 0 -0.252183,-0.03669 9.9219677,9.9217866 0 0 0 -0.253218,-0.03049 9.9219677,9.9217866 0 0 0 -0.253733,-0.02377 9.9219677,9.9217866 0 0 0 -0.25425,-0.01705 9.9219677,9.9217866 0 0 0 -0.254768,-0.01085 9.9219677,9.9217866 0 0 0 -0.254766,-0.0041 9.9219677,9.9217866 0 0 0 -0.740014,0.02532 9.9219677,9.9217866 0 0 0 -0.736396,0.0801 9.9219677,9.9217866 0 0 0 -0.727611,0.134874 9.9219677,9.9217866 0 0 0 -0.716241,0.188617 9.9219677,9.9217866 0 0 0 -0.6997065,0.241844 9.9219677,9.9217866 0 0 0 -0.680068,0.293002 9.9219677,9.9217866 0 0 0 -0.6557801,0.343129 9.9219677,9.9217866 0 0 0 -0.628908,0.391187 9.9219677,9.9217866 0 0 0 -0.5979018,0.43667 A 9.9219677,9.9217866 0 0 0 6.51676,18.490294 9.9219677,9.9217866 0 0 0 5.9906891,19.011188 9.9219677,9.9217866 0 0 0 5.5044096,19.569806 9.9219677,9.9217866 0 0 0 5.0615401,20.163043 9.9219677,9.9217866 0 0 0 4.6641447,20.787805 9.9219677,9.9217866 0 0 0 4.4217801,21.240487 11.90636,11.906143 0 0 1 1.3232322,13.149063 11.90636,11.906143 0 0 1 13.269385,1.3229788 Z m -0.02481,2.6458098 a 4.6302518,4.6301673 0 0 0 -4.6457551,4.5991613 4.6302518,4.6301673 0 0 0 0.00103,0.03101 h -0.016536 a 2.3151257,4.6301673 0 0 1 -2.0355536,4.1407961 4.6302518,4.6301673 0 0 0 2.0980826,0.48937 4.6302518,4.6301673 0 0 0 2.2536291,-0.629417 4.6302518,4.6301673 0 0 0 2.282569,0.629413 4.6302518,4.6301673 0 0 0 2.36732,-0.625795 4.6302518,4.6301673 0 0 0 2.262933,0.625795 4.6302518,4.6301673 0 0 0 1.58338,-0.271298 2.3151257,4.6301673 0 0 1 -0.01705,-0.01085 2.3151257,4.6301673 0 0 1 -0.146245,-0.118338 2.3151257,4.6301673 0 0 1 -0.141595,-0.137975 2.3151257,4.6301673 0 0 1 -0.136944,-0.157095 2.3151257,4.6301673 0 0 1 -0.131259,-0.175698 2.3151257,4.6301673 0 0 1 -0.124541,-0.192751 2.3151257,4.6301673 0 0 1 -0.11834,-0.209288 2.3151257,4.6301673 0 0 1 -0.110589,-0.22479 2.3151257,4.6301673 0 0 1 -0.10232,-0.239777 2.3151257,4.6301673 0 0 1 -0.09457,-0.252696 2.3151257,4.6301673 0 0 1 -0.08527,-0.265098 2.3151257,4.6301673 0 0 1 -0.07648,-0.276466 2.3151257,4.6301673 0 0 1 -0.06666,-0.285769 2.3151257,4.6301673 0 0 1 -0.05633,-0.294552 2.3151257,4.6301673 0 0 1 -0.04703,-0.3012709 2.3151257,4.6301673 0 0 1 -0.03617,-0.3069553 2.3151257,4.6301673 0 0 1 -0.02532,-0.3110892 2.3151257,4.6301673 0 0 1 -0.0155,-0.3141902 2.3151257,4.6301673 0 0 1 -0.0036,-0.2842175 h -5.16e-4 A 4.6302518,4.6301673 0 0 0 13.24458,3.9687886 Z" />
  </g>
</svg>
