<?xml version="1.0" encoding="UTF-8" standalone="no"?>
<!-- Created with Inkscape (http://www.inkscape.org/) -->

<svg
   width="100"
   height="100"
   viewBox="0 0 26.458332 26.458334"
   version="1.1"
   id="svg5"
   inkscape:version="1.1.2 (0a00cf5339, 2022-02-04, custom)"
   sodipodi:docname="croix.svg"
   xmlns:inkscape="http://www.inkscape.org/namespaces/inkscape"
   xmlns:sodipodi="http://sodipodi.sourceforge.net/DTD/sodipodi-0.dtd"
   xmlns="http://www.w3.org/2000/svg"
   xmlns:svg="http://www.w3.org/2000/svg">
  <sodipodi:namedview
     id="namedview7"
     pagecolor="#ffffff"
     bordercolor="#666666"
     borderopacity="1.0"
     inkscape:pageshadow="2"
     inkscape:pageopacity="0.0"
     inkscape:pagecheckerboard="0"
     inkscape:document-units="mm"
     showgrid="false"
     units="px"
     inkscape:zoom="4.6395623"
     inkscape:cx="48.81926"
     inkscape:cy="46.125041"
     inkscape:window-width="1600"
     inkscape:window-height="837"
     inkscape:window-x="-8"
     inkscape:window-y="-8"
     inkscape:window-maximized="1"
     inkscape:current-layer="layer1"
     width="100px" />
  <defs
     id="defs2" />
  <g
     inkscape:label="Calque 1"
     inkscape:groupmode="layer"
     id="layer1">
    <path
       id="rect1034"
       style="fill:#731c24;stroke-width:0.836684;fill-opacity:1"
       d="m 22.5836,3.8747332 c -0.518236,-0.5182356 -1.352651,-0.5182356 -1.870887,0 L 13.229167,11.35828 5.7456198,3.8747332 c -0.5182356,-0.5182356 -1.352651,-0.5182356 -1.8708866,0 -0.5182356,0.5182356 -0.5182356,1.352651 0,1.8708866 L 11.35828,13.229167 3.8747332,20.712713 c -0.5182356,0.518236 -0.5182356,1.352651 0,1.870887 0.5182356,0.518235 1.352651,0.518235 1.8708866,0 l 7.4835472,-7.483547 7.483546,7.483547 c 0.518236,0.518235 1.352651,0.518235 1.870887,0 0.518235,-0.518236 0.518235,-1.352651 0,-1.870887 L 15.100053,13.229167 22.5836,5.7456198 c 0.518235,-0.5182356 0.518235,-1.352651 0,-1.8708866 z" />
  </g>
</svg>
