<?xml version="1.0" encoding="UTF-8" standalone="no"?>
<!-- Created with Inkscape (http://www.inkscape.org/) -->

<svg
   width="100"
   height="100"
   viewBox="0 0 26.458333 26.458334"
   version="1.1"
   id="svg5"
   inkscape:version="1.1.2 (0a00cf5339, 2022-02-04, custom)"
   sodipodi:docname="filtre.svg"
   xmlns:inkscape="http://www.inkscape.org/namespaces/inkscape"
   xmlns:sodipodi="http://sodipodi.sourceforge.net/DTD/sodipodi-0.dtd"
   xmlns="http://www.w3.org/2000/svg"
   xmlns:svg="http://www.w3.org/2000/svg">
  <sodipodi:namedview
     id="namedview7"
     pagecolor="#ffffff"
     bordercolor="#666666"
     borderopacity="1.0"
     inkscape:pageshadow="2"
     inkscape:pageopacity="0.0"
     inkscape:pagecheckerboard="0"
     inkscape:document-units="mm"
     showgrid="false"
     units="px"
     inkscape:zoom="4"
     inkscape:cx="47.375"
     inkscape:cy="61.75"
     inkscape:window-width="1600"
     inkscape:window-height="837"
     inkscape:window-x="-8"
     inkscape:window-y="-8"
     inkscape:window-maximized="1"
     inkscape:current-layer="layer1" />
  <defs
     id="defs2" />
  <g
     inkscape:label="Calque 1"
     inkscape:groupmode="layer"
     id="layer1">
    <path
       id="path4722"
       style="fill:#23201e;fill-opacity:1;stroke:none;stroke-width:0.999999px;stroke-linecap:butt;stroke-linejoin:miter;stroke-opacity:1"
       d="M 10 0 C 9.7503972 -0.00022434726 9.5008734 0.0088966204 9.2519531 0.02734375 C 9.0035977 0.04608625 8.7560292 0.07410059 8.5097656 0.11132812 C 8.2633316 0.14838545 8.0183689 0.1946417 7.7753906 0.25 C 7.5321779 0.30541737 7.2911238 0.36991561 7.0527344 0.44335938 C 6.8140414 0.51718011 6.5781987 0.59992048 6.3457031 0.69140625 C 6.1142009 0.78247801 5.8861776 0.88215674 5.6621094 0.99023438 C 5.4371193 1.0984646 5.2162614 1.2150828 5 1.3398438 C 4.7841687 1.4647199 4.5730836 1.5976257 4.3671875 1.7382812 C 4.1612128 1.8785211 3.9605519 2.0264108 3.765625 2.1816406 C 3.5708011 2.3372821 3.3818667 2.5001564 3.1992188 2.6699219 C 3.0162427 2.8396867 2.8396867 3.0162427 2.6699219 3.1992188 C 2.5001564 3.3818667 2.3372821 3.5708011 2.1816406 3.765625 C 2.0264108 3.9605519 1.8785211 4.1612128 1.7382812 4.3671875 C 1.5976257 4.5730836 1.4647199 4.7841687 1.3398438 5 C 1.2150828 5.2162614 1.0984646 5.4371193 0.99023438 5.6621094 C 0.88215674 5.8861776 0.78247801 6.1142009 0.69140625 6.3457031 C 0.59992048 6.5781987 0.51718011 6.8140414 0.44335938 7.0527344 C 0.36991561 7.2911238 0.30541737 7.5321779 0.25 7.7753906 C 0.1946417 8.0183689 0.14838545 8.2633316 0.11132812 8.5097656 C 0.07410059 8.7560292 0.04608625 9.0035977 0.02734375 9.2519531 C 0.0088966204 9.5008734 -0.00022434726 9.7503972 0 10 L 0 15.867188 C -0.00022432404 16.116789 0.0088966504 16.366314 0.02734375 16.615234 C 0.04608624 16.86359 0.07410058 17.111158 0.11132812 17.357422 C 0.14838542 17.603856 0.19464172 17.848819 0.25 18.091797 C 0.3054174 18.33501 0.36991562 18.576064 0.44335938 18.814453 C 0.51722636 19.052488 0.59996642 19.287678 0.69140625 19.519531 C 0.78243305 19.751693 0.88211214 19.980368 0.99023438 20.205078 C 1.0984646 20.430068 1.2150828 20.650926 1.3398438 20.867188 C 1.4647199 21.083017 1.5976257 21.294104 1.7382812 21.5 C 1.8785211 21.705975 2.0264108 21.906637 2.1816406 22.101562 C 2.3372821 22.296386 2.5001564 22.485321 2.6699219 22.667969 L 3.1992188 23.197266 L 37.205078 57.207031 C 37.293458 57.299111 37.380058 57.392882 37.464844 57.488281 C 37.550034 57.583681 37.633379 57.680702 37.714844 57.779297 C 37.796184 57.878027 37.875629 57.978303 37.953125 58.080078 C 38.030605 58.181488 38.106143 58.284371 38.179688 58.388672 C 38.253336 58.493407 38.324961 58.599546 38.394531 58.707031 C 38.463641 58.813815 38.530714 58.921907 38.595703 59.03125 C 38.660983 59.141355 38.724148 59.252704 38.785156 59.365234 C 38.845916 59.477384 38.904517 59.590686 38.960938 59.705078 C 39.017826 59.819255 39.072523 59.934511 39.125 60.050781 C 39.17739 60.167646 39.227529 60.285506 39.275391 60.404297 C 39.323241 60.522555 39.368821 60.641717 39.412109 60.761719 C 39.454789 60.882029 39.495159 61.003145 39.533203 61.125 C 39.572003 61.246686 39.608473 61.369105 39.642578 61.492188 C 39.676188 61.615274 39.707448 61.738997 39.736328 61.863281 C 39.765418 61.987758 39.792116 62.112781 39.816406 62.238281 C 39.840946 62.363497 39.863084 62.489171 39.882812 62.615234 C 39.902182 62.74185 39.919104 62.868827 39.933594 62.996094 C 39.948394 63.122799 39.960763 63.249775 39.970703 63.376953 C 39.980303 63.504408 39.987478 63.632036 39.992188 63.759766 C 39.997186 63.887308 39.9999 64.014936 40 64.142578 L 40 90 C 40.000292 91.049289 40.165728 92.091995 40.490234 93.089844 C 40.814412 94.087611 41.29358 95.028151 41.910156 95.876953 C 42.527079 96.726148 43.273852 97.472921 44.123047 98.089844 C 44.971849 98.70642 45.912389 99.185588 46.910156 99.509766 C 47.908017 99.834272 48.950711 99.999708 50 100 C 51.049291 99.999709 52.091969 99.834276 53.089844 99.509766 C 54.087609 99.185588 55.028154 98.706417 55.876953 98.089844 C 56.726149 97.472919 57.472923 96.726149 58.089844 95.876953 C 58.706421 95.028154 59.185596 94.087609 59.509766 93.089844 C 59.834268 92.091996 59.999709 91.049288 60 90 L 60 64.142578 C 60.000378 64.014921 60.002899 63.887325 60.007812 63.759766 C 60.012726 63.632033 60.019848 63.504399 60.029297 63.376953 C 60.039124 63.249776 60.051666 63.122784 60.066406 62.996094 C 60.080882 62.868841 60.097912 62.741849 60.117188 62.615234 C 60.136917 62.489149 60.159027 62.363497 60.183594 62.238281 C 60.207896 62.112763 60.23457 61.987741 60.263672 61.863281 C 60.292547 61.738973 60.323784 61.615287 60.357422 61.492188 C 60.391551 61.369126 60.427981 61.246701 60.466797 61.125 C 60.504857 61.003148 60.54522 60.882021 60.587891 60.761719 C 60.631166 60.641719 60.676761 60.522558 60.724609 60.404297 C 60.772458 60.285506 60.822616 60.167644 60.875 60.050781 C 60.927498 59.934485 60.982181 59.819258 61.039062 59.705078 C 61.095491 59.590672 61.154069 59.477373 61.214844 59.365234 C 61.275883 59.25268 61.339024 59.141348 61.404297 59.03125 C 61.469305 58.921908 61.536341 58.813803 61.605469 58.707031 C 61.675012 58.599541 61.74665 58.493403 61.820312 58.388672 C 61.893824 58.284357 61.969395 58.181483 62.046875 58.080078 C 62.124393 57.978295 62.203821 57.878018 62.285156 57.779297 C 62.366643 57.680689 62.449966 57.583677 62.535156 57.488281 C 62.619931 57.392886 62.706557 57.299101 62.794922 57.207031 L 96.800781 23.197266 L 97.330078 22.667969 C 97.499862 22.485321 97.662718 22.296386 97.818359 22.101562 C 97.973603 21.906636 98.12146 21.705977 98.261719 21.5 C 98.402393 21.294104 98.535281 21.083017 98.660156 20.867188 C 98.784918 20.650926 98.90152 20.43007 99.009766 20.205078 C 99.11786 19.980368 99.217583 19.751693 99.308594 19.519531 C 99.400021 19.287678 99.482789 19.052488 99.556641 18.814453 C 99.630077 18.576064 99.694592 18.335009 99.75 18.091797 C 99.80537 17.848819 99.851633 17.603855 99.888672 17.357422 C 99.9259 17.111158 99.953759 16.863591 99.972656 16.615234 C 99.991176 16.366315 100.00022 16.116791 100 15.867188 L 100 10 C 100.00038 9.7503974 99.991176 9.5008728 99.972656 9.2519531 C 99.95391 9.0035977 99.926089 8.7560283 99.888672 8.5097656 C 99.851633 8.2633317 99.80537 8.0183689 99.75 7.7753906 C 99.694592 7.532178 99.630077 7.2911243 99.556641 7.0527344 C 99.482826 6.8140413 99.400096 6.578197 99.308594 6.3457031 C 99.217545 6.1142006 99.117822 5.8861787 99.009766 5.6621094 C 98.90152 5.437119 98.784918 5.2162608 98.660156 5 C 98.535281 4.7841674 98.402355 4.5730962 98.261719 4.3671875 C 98.121479 4.1612146 97.973585 3.9605352 97.818359 3.765625 C 97.662711 3.5707828 97.499855 3.3818833 97.330078 3.1992188 C 97.160328 3.0162405 96.983748 2.8396983 96.800781 2.6699219 C 96.618136 2.5001417 96.42921 2.3372816 96.234375 2.1816406 C 96.039446 2.0264305 95.838797 1.8785395 95.632812 1.7382812 C 95.426919 1.5976072 95.215811 1.4647193 95 1.3398438 C 94.783735 1.2150815 94.562886 1.09848 94.337891 0.99023438 C 94.113825 0.88217768 93.885793 0.78249286 93.654297 0.69140625 C 93.421803 0.59990389 93.185943 0.51717355 92.947266 0.44335938 C 92.708876 0.36992315 92.467822 0.30540787 92.224609 0.25 C 91.981631 0.19462992 91.73666 0.1483675 91.490234 0.11132812 C 91.243972 0.074099779 90.9964 0.046241388 90.748047 0.02734375 C 90.499127 0.0092020177 90.2496 -0.00022299213 90 0 L 50 0 L 10 0 z "
       transform="scale(0.26458333)" />
  </g>
</svg>
