<?xml version="1.0" encoding="UTF-8" standalone="no"?>
<!-- Created with Inkscape (http://www.inkscape.org/) -->

<svg
   width="100"
   height="100"
   viewBox="0 0 26.458333 26.458334"
   version="1.1"
   id="svg5"
   inkscape:version="1.1.2 (0a00cf5339, 2022-02-04, custom)"
   sodipodi:docname="loupe.svg"
   xmlns:inkscape="http://www.inkscape.org/namespaces/inkscape"
   xmlns:sodipodi="http://sodipodi.sourceforge.net/DTD/sodipodi-0.dtd"
   xmlns="http://www.w3.org/2000/svg"
   xmlns:svg="http://www.w3.org/2000/svg">
  <sodipodi:namedview
     id="namedview7"
     pagecolor="#ffffff"
     bordercolor="#666666"
     borderopacity="1.0"
     inkscape:pageshadow="2"
     inkscape:pageopacity="0.0"
     inkscape:pagecheckerboard="0"
     inkscape:document-units="mm"
     showgrid="false"
     units="px"
     inkscape:zoom="4.6395623"
     inkscape:cx="58.087376"
     inkscape:cy="44.616278"
     inkscape:window-width="1600"
     inkscape:window-height="837"
     inkscape:window-x="-8"
     inkscape:window-y="-8"
     inkscape:window-maximized="1"
     inkscape:current-layer="layer1" />
  <defs
     id="defs2" />
  <g
     inkscape:label="Calque 1"
     inkscape:groupmode="layer"
     id="layer1">
    <path
       id="path31"
       style="fill:#23201e;stroke-width:0.999999;fill-opacity:1"
       d="M 40 0 A 39.999998 39.999998 0 0 0 0 40 A 39.999998 39.999998 0 0 0 40 80 A 39.999998 39.999998 0 0 0 64.548828 71.566406 L 92.697266 99.714844 L 99.767578 92.642578 L 71.613281 64.488281 A 39.999998 39.999998 0 0 0 80 40 A 39.999998 39.999998 0 0 0 40 0 z M 40 10 A 30 30 0 0 1 70 40 A 30 30 0 0 1 40 70 A 30 30 0 0 1 10 40 A 30 30 0 0 1 40 10 z "
       transform="scale(0.26458333)" />
  </g>
</svg>
