<?xml version="1.0" encoding="UTF-8" standalone="no"?>
<!-- Created with Inkscape (http://www.inkscape.org/) -->

<svg
   width="100"
   height="100"
   viewBox="0 0 26.458332 26.458334"
   version="1.1"
   id="svg5"
   inkscape:version="1.1.2 (0a00cf5339, 2022-02-04, custom)"
   sodipodi:docname="menu.svg"
   xmlns:inkscape="http://www.inkscape.org/namespaces/inkscape"
   xmlns:sodipodi="http://sodipodi.sourceforge.net/DTD/sodipodi-0.dtd"
   xmlns="http://www.w3.org/2000/svg"
   xmlns:svg="http://www.w3.org/2000/svg">
  <sodipodi:namedview
     id="namedview7"
     pagecolor="#ffffff"
     bordercolor="#666666"
     borderopacity="1.0"
     inkscape:pageshadow="2"
     inkscape:pageopacity="0.0"
     inkscape:pagecheckerboard="0"
     inkscape:document-units="mm"
     showgrid="false"
     units="px"
     inkscape:zoom="4.6395623"
     inkscape:cx="48.81926"
     inkscape:cy="46.556116"
     inkscape:window-width="1600"
     inkscape:window-height="837"
     inkscape:window-x="-8"
     inkscape:window-y="-8"
     inkscape:window-maximized="1"
     inkscape:current-layer="layer1"
     width="100px" />
  <defs
     id="defs2" />
  <g
     inkscape:label="Calque 1"
     inkscape:groupmode="layer"
     id="layer1">
    <path
       id="rect213"
       style="fill:#f8edea;stroke-width:1.92184;fill-opacity:1"
       d="M 50 0 C 48.615 2.9605947e-16 47.5 1.115 47.5 2.5 L 47.5 47.5 L 2.5 47.5 C 1.115 47.5 0 48.615 0 50 C 2.9605947e-16 51.385 1.115 52.5 2.5 52.5 L 47.5 52.5 L 47.5 97.5 C 47.5 98.885 48.615 100 50 100 C 51.385 100 52.5 98.885 52.5 97.5 L 52.5 52.5 L 97.5 52.5 C 98.885 52.5 100 51.385 100 50 C 100 48.615 98.885 47.5 97.5 47.5 L 52.5 47.5 L 52.5 2.5 C 52.5 1.115 51.385 0 50 0 z "
       transform="scale(0.26458333)" />
  </g>
</svg>
