<?xml version="1.0" encoding="UTF-8" standalone="no"?>
<!-- Created with Inkscape (http://www.inkscape.org/) -->

<svg
   width="500"
   height="500"
   viewBox="0 0 132.29166 132.29167"
   version="1.1"
   id="svg5"
   inkscape:version="1.1.2 (0a00cf5339, 2022-02-04, custom)"
   sodipodi:docname="fond_instruments.svg"
   xmlns:inkscape="http://www.inkscape.org/namespaces/inkscape"
   xmlns:sodipodi="http://sodipodi.sourceforge.net/DTD/sodipodi-0.dtd"
   xmlns="http://www.w3.org/2000/svg"
   xmlns:svg="http://www.w3.org/2000/svg">
  <sodipodi:namedview
     id="namedview7"
     pagecolor="#ffffff"
     bordercolor="#666666"
     borderopacity="1.0"
     inkscape:pageshadow="2"
     inkscape:pageopacity="0.0"
     inkscape:pagecheckerboard="0"
     inkscape:document-units="mm"
     showgrid="false"
     units="px"
     inkscape:zoom="1"
     inkscape:cx="203.5"
     inkscape:cy="252"
     inkscape:window-width="1600"
     inkscape:window-height="837"
     inkscape:window-x="-8"
     inkscape:window-y="-8"
     inkscape:window-maximized="1"
     inkscape:current-layer="layer1" />
  <defs
     id="defs2" />
  <g
     inkscape:label="Calque 1"
     inkscape:groupmode="layer"
     id="layer1">
    <path
       id="rect34724"
       style="fill:#f2dfd9;fill-opacity:1;stroke-width:1.82418"
       d="m 36.889935,15.803133 c -0.409588,-0.324532 -1.046115,-0.06521 -1.64029,-0.230666 l -0.286561,0.3445 -0.156092,-0.12984 0.194759,-0.234139 a 0.40607039,0.40607039 0 0 0 -0.570342,0.05068 0.40607039,0.40607039 0 0 0 0.04793,0.571159 0.40607039,0.40607039 0 0 0 0.0031,0.0026 l 0.19476,-0.234139 0.156092,0.12984 -0.908882,1.092647 -0.15611,-0.129855 0.19476,-0.234139 a 0.40607039,0.40607039 0 0 0 -0.570344,0.05068 0.40607039,0.40607039 0 0 0 0.04793,0.571158 0.40607039,0.40607039 0 0 0 0.0031,0.0026 l 0.194761,-0.234139 0.156093,0.12984 -0.908881,1.092647 -0.156112,-0.129856 0.19476,-0.234137 a 0.40607039,0.40607039 0 0 0 -0.570344,0.05068 0.40607039,0.40607039 0 0 0 0.04793,0.571157 0.40607039,0.40607039 0 0 0 0.0031,0.0026 l 0.194759,-0.234139 0.156093,0.12984 -0.285547,0.34328 c 0.125098,0.21464 0.16603,0.465577 0.201497,0.710241 l -5.485242,6.594295 -0.936553,-0.779041 c -0.07427,-0.06177 -0.152846,-0.118161 -0.235137,-0.168759 -0.08243,-0.0506 -0.168414,-0.0952 -0.257237,-0.133508 -0.08859,-0.03846 -0.179796,-0.07054 -0.272945,-0.09601 -0.09337,-0.02546 -0.188434,-0.04422 -0.284479,-0.05611 -0.09591,-0.01166 -0.192526,-0.01659 -0.289116,-0.01458 -0.09694,0.002 -0.193612,0.01074 -0.289284,0.02657 -0.09535,0.01559 -0.189473,0.03797 -0.281631,0.06696 -0.09227,0.02919 -0.182336,0.06493 -0.269505,0.106972 -0.08694,0.04201 -0.170794,0.09018 -0.250896,0.144114 -0.08036,0.05385 -0.203536,0.155961 -0.275399,0.220707 -0.07164,0.06477 -0.138696,0.13449 -0.200475,0.208754 -0.06177,0.07427 -0.193038,0.220549 -0.243683,0.302793 -0.0506,0.08243 -0.119143,0.183574 -0.157463,0.272385 -0.03846,0.08859 -0.102414,0.188358 -0.239049,0.44489 -0.163608,0.238831 -0.202274,0.311236 -0.311016,0.483027 -0.313976,0.420129 -0.413181,0.546902 -0.751278,0.889498 -0.47682,0.386295 -0.585579,0.463617 -0.816503,0.608286 l -3.908031,2.494346 -0.120279,0.07017 -0.112758,0.0661 c -0.123717,0.06687 -0.243879,0.140123 -0.359986,0.219463 -0.144651,0.10243 -0.282446,0.214228 -0.41249,0.334663 -0.130147,0.120217 -0.252284,0.248816 -0.365632,0.384985 -0.11325,0.136256 -0.217509,0.279725 -0.311971,0.429621 -0.09474,0.149807 -0.179579,0.305645 -0.253956,0.466532 -0.07404,0.161057 -0.137468,0.326781 -0.189855,0.496124 -0.05269,0.169291 -0.09422,0.341858 -0.124346,0.516579 -0.03007,0.174698 -0.04867,0.351173 -0.05568,0.528298 -0.0068,0.177086 -0.002,0.35442 0.01443,0.530874 0.01602,0.176492 0.04359,0.351734 0.08252,0.524619 0.03915,0.172887 0.08957,0.343027 0.150943,0.509325 0.06144,0.166312 0.133693,0.328432 0.216323,0.485303 0.08234,0.156974 0.174891,0.308376 0.277021,0.453261 0.10243,0.144651 0.214224,0.282442 0.33466,0.412487 0.120217,0.130147 0.248817,0.252286 0.384985,0.365633 l 1.352862,1.191351 1.417778,1.113312 c 0.13624,0.113249 0.279726,0.217508 0.429622,0.311971 0.149808,0.09474 0.305645,0.179579 0.466532,0.253956 0.161057,0.07404 0.32678,0.137468 0.496125,0.189855 0.169291,0.05269 0.341857,0.09422 0.51658,0.124331 0.174698,0.03006 0.351168,0.04867 0.528296,0.05568 0.177084,0.0068 0.354414,0.002 0.530874,-0.01443 0.176493,-0.01604 0.351734,-0.04359 0.524619,-0.08252 0.172887,-0.03915 0.343024,-0.08957 0.509325,-0.150958 0.166313,-0.06144 0.328433,-0.133693 0.485302,-0.216323 0.156973,-0.08234 0.308377,-0.174893 0.453261,-0.277021 0.14465,-0.10243 0.282444,-0.214226 0.412488,-0.334661 0.130193,-0.120171 0.252286,-0.248816 0.365632,-0.384984 0.11325,-0.13624 0.217509,-0.279726 0.311971,-0.429622 0.09474,-0.149808 0.179577,-0.305645 0.253956,-0.466532 0.05688,-0.128612 0.107018,-0.260102 0.150252,-0.393931 l 0.04448,-0.122919 0.0471,-0.131053 1.741032,-4.296893 c 0.100189,-0.253409 0.156422,-0.374428 0.44944,-0.913613 0.275291,-0.394839 0.381916,-0.515438 0.737826,-0.900686 0.149101,-0.13822 0.213283,-0.189401 0.418319,-0.393774 0.227364,-0.181056 0.313831,-0.262111 0.393924,-0.316061 0.08036,-0.05385 0.167319,-0.139663 0.239159,-0.204428 0.07164,-0.06478 0.191583,-0.220481 0.253359,-0.294746 0.06179,-0.07425 0.118283,-0.152754 0.168758,-0.235135 0.0506,-0.08243 0.128551,-0.22217 0.166871,-0.310983 0.03846,-0.08859 0.07054,-0.179796 0.09601,-0.272942 0.02546,-0.09338 0.04422,-0.188437 0.05611,-0.284481 0.01166,-0.09591 0.01661,-0.192515 0.01458,-0.289117 -0.002,-0.09694 -0.01074,-0.193612 -0.02657,-0.289283 -0.01559,-0.09535 -0.03797,-0.189474 -0.06696,-0.28163 -0.02919,-0.09227 -0.06494,-0.182338 -0.106972,-0.269506 -0.04202,-0.08696 -0.09018,-0.170794 -0.144114,-0.250897 -0.05385,-0.08036 -0.113372,-0.156768 -0.178113,-0.228629 -0.06477,-0.07164 -0.13449,-0.138696 -0.208752,-0.200475 l -0.936555,-0.779039 5.485241,-6.594295 c 0.247033,-0.0097 0.501225,-0.01519 0.735057,0.0688 l 0.285547,-0.343282 0.156093,0.12984 -0.194759,0.234139 a 0.40607039,0.40607039 0 0 0 0.0031,0.0026 0.40607039,0.40607039 0 0 0 0.570369,-0.05685 0.40607039,0.40607039 0 0 0 -0.05402,-0.570035 l -0.194758,0.234137 -0.156094,-0.12984 0.908881,-1.092647 0.156094,0.12984 -0.194762,0.234139 a 0.40607039,0.40607039 0 0 0 0.0031,0.0026 0.40607039,0.40607039 0 0 0 0.570338,-0.05688 0.40607039,0.40607039 0 0 0 -0.05402,-0.570035 l -0.194762,0.234139 -0.15611,-0.129855 0.908881,-1.092649 0.156093,0.12984 -0.194761,0.234139 a 0.40607039,0.40607039 0 0 0 0.0031,0.0026 0.40607039,0.40607039 0 0 0 0.570338,-0.05686 0.40607039,0.40607039 0 0 0 -0.05402,-0.570036 l -0.194759,0.234139 -0.156112,-0.129855 0.28656,-0.3445 c -0.270879,-0.554114 -0.131804,-1.227207 -0.52549,-1.570864 -0.0031,-0.0028 -0.0066,-0.0055 -0.0098,-0.0081 -0.0032,-0.0026 -0.0066,-0.0055 -0.0098,-0.0081 z m -1.549137,0.295975 a 0.2030352,0.2030352 0 0 1 0.02565,0.285425 l -0.0015,0.0018 a 0.2030352,0.2030352 0 0 1 -0.286241,0.0229 0.2030352,0.2030352 0 0 1 -0.0234,-0.28563 0.2030352,0.2030352 0 0 1 0.285529,-0.02453 z m 1.559705,1.297388 a 0.2030352,0.2030352 0 0 1 0.02787,0.285221 0.2030352,0.2030352 0 0 1 -0.285117,0.02899 0.2030352,0.2030352 0 0 1 -0.02961,-0.285625 l 0.0015,-0.0018 a 0.2030352,0.2030352 0 0 1 0.285323,-0.02675 z m -2.598425,-0.04865 a 0.2030352,0.2030352 0 0 1 0.02565,0.285425 l -0.0015,0.0018 a 0.2030352,0.2030352 0 0 1 -0.286239,0.0229 0.2030352,0.2030352 0 0 1 -0.0234,-0.285632 0.2030352,0.2030352 0 0 1 0.285528,-0.02453 z m 1.559703,1.297387 a 0.2030352,0.2030352 0 0 1 0.02787,0.285219 0.2030352,0.2030352 0 0 1 -0.285117,0.02899 0.2030352,0.2030352 0 0 1 -0.0296,-0.285624 l 0.0015,-0.0018 a 0.2030352,0.2030352 0 0 1 0.285323,-0.02677 z m -2.598425,-0.04865 a 0.2030352,0.2030352 0 0 1 0.02565,0.285426 l -0.0015,0.0018 a 0.2030352,0.2030352 0 0 1 -0.28624,0.0229 0.2030352,0.2030352 0 0 1 -0.0234,-0.285632 0.2030352,0.2030352 0 0 1 0.285529,-0.02453 z m 1.559704,1.297386 a 0.2030352,0.2030352 0 0 1 0.02787,0.28522 0.2030352,0.2030352 0 0 1 -0.285119,0.02899 0.2030352,0.2030352 0 0 1 -0.02961,-0.285626 l 0.0015,-0.0018 a 0.2030352,0.2030352 0 0 1 0.285325,-0.02677 z m -8.954904,9.189184 a 1.8273167,1.8273167 0 0 1 0.23139,2.569335 l -0.01572,0.01891 a 1.8273167,1.8273167 0 0 1 -2.571693,0.205703 1.8273167,1.8273167 0 0 1 -0.214132,-2.571483 1.8273167,1.8273167 0 0 1 2.570157,-0.222458 z m -0.260861,0.311205 a 1.4212465,1.4212465 0 0 0 -1.999099,0.173404 1.4212465,1.4212465 0 0 0 0.166704,1.999716 1.4212465,1.4212465 0 0 0 2.000329,-0.160002 l 0.01213,-0.01458 A 1.4212465,1.4212465 0 0 0 25.60726,29.394331 Z m -0.260861,0.311202 a 1.0151761,1.0151761 0 0 1 0.128828,1.427635 l -0.0086,0.01044 a 1.0151761,1.0151761 0 0 1 -1.428968,0.114309 1.0151761,1.0151761 0 0 1 -0.118775,-1.428556 1.0151761,1.0151761 0 0 1 1.427538,-0.123747 z m -6.886808,5.099358 3.121847,2.596803 -0.519361,0.624369 -3.121847,-2.596803 z" />
    <path
       id="path36847"
       style="fill:#f2dfd9;fill-opacity:1;stroke-width:0.792386"
       d="m 100.58251,16.707027 a 0.26458333,0.52916667 71.241701 0 0 -0.0337,0.01216 0.26458333,0.52916667 71.241701 0 0 -0.0337,0.01325 0.26458333,0.52916667 71.241701 0 0 -0.0327,0.01407 0.26458333,0.52916667 71.241701 0 0 -0.0318,0.01555 0.26458333,0.52916667 71.241701 0 0 -0.0306,0.01589 0.26458333,0.52916667 71.241701 0 0 -0.0299,0.01703 0.26458333,0.52916667 71.241701 0 0 -0.0284,0.018 0.26458333,0.52916667 71.241701 0 0 -0.027,0.0182 0.26458333,0.52916667 71.241701 0 0 -0.0256,0.0188 0.26458333,0.52916667 71.241701 0 0 -0.0238,0.0197 0.26458333,0.52916667 71.241701 0 0 -0.022,0.0198 0.26458333,0.52916667 71.241701 0 0 -0.02,0.0203 0.26458333,0.52916667 71.241701 0 0 -0.0182,0.0204 0.26458333,0.52916667 71.241701 0 0 -0.0163,0.0208 0.26458333,0.52916667 71.241701 0 0 -0.0142,0.0205 0.26458333,0.52916667 71.241701 0 0 -0.0119,0.0208 0.26458333,0.52916667 71.241701 0 0 -0.009,0.0203 0.26458333,0.52916667 71.241701 0 0 -0.007,0.02 0.26458333,0.52916667 71.241701 0 0 -0.005,0.0198 0.26458333,0.52916667 71.241701 0 0 -0.003,0.0195 0.26458333,0.52916667 71.241701 0 0 7e-5,0.0189 0.26458333,0.52916667 71.241701 0 0 0.002,0.0183 0.26458333,0.52916667 71.241701 0 0 0.005,0.0173 l 0.45467,1.33877 a 4.4097223,8.8194443 71.241701 0 1 0.10405,-0.075 4.4097223,8.8194443 71.241701 0 1 0.38901,-0.25909 4.4097223,8.8194443 71.241701 0 1 0.40548,-0.25123 4.4097223,8.8194443 71.241701 0 1 0.0171,-0.01 l -0.36648,-1.079108 -0.003,-0.0088 a 0.26458333,0.52916667 71.241701 0 0 -0.003,-0.0056 0.26458333,0.52916667 71.241701 0 0 -0.003,-0.0054 0.26458333,0.52916667 71.241701 0 0 -0.003,-0.0056 0.26458333,0.52916667 71.241701 0 0 -0.003,-0.0053 0.26458333,0.52916667 71.241701 0 0 -0.003,-0.0053 0.26458333,0.52916667 71.241701 0 0 -0.004,-0.0052 0.26458333,0.52916667 71.241701 0 0 -0.004,-0.0049 0.26458333,0.52916667 71.241701 0 0 -0.004,-0.0049 0.26458333,0.52916667 71.241701 0 0 -0.004,-0.0049 0.26458333,0.52916667 71.241701 0 0 -0.005,-0.0046 0.26458333,0.52916667 71.241701 0 0 -0.005,-0.0046 0.26458333,0.52916667 71.241701 0 0 -0.005,-0.0046 0.26458333,0.52916667 71.241701 0 0 -0.006,-0.0039 0.26458333,0.52916667 71.241701 0 0 -0.006,-0.0043 0.26458333,0.52916667 71.241701 0 0 -0.006,-0.0039 0.26458333,0.52916667 71.241701 0 0 -0.006,-0.0039 0.26458333,0.52916667 71.241701 0 0 -0.006,-0.0036 0.26458333,0.52916667 71.241701 0 0 -0.007,-0.0036 0.26458333,0.52916667 71.241701 0 0 -0.007,-0.0036 0.26458333,0.52916667 71.241701 0 0 -0.007,-0.0036 0.26458333,0.52916667 71.241701 0 0 -0.007,-0.003 0.26458333,0.52916667 71.241701 0 0 -0.007,-0.003 0.26458333,0.52916667 71.241701 0 0 -0.007,-0.003 0.26458333,0.52916667 71.241701 0 0 -0.007,-0.003 0.26458333,0.52916667 71.241701 0 0 -0.008,-0.0027 0.26458333,0.52916667 71.241701 0 0 -0.008,-0.0023 0.26458333,0.52916667 71.241701 0 0 -0.008,-0.0023 0.26458333,0.52916667 71.241701 0 0 -0.008,-0.0023 0.26458333,0.52916667 71.241701 0 0 -0.009,-0.002 0.26458333,0.52916667 71.241701 0 0 -0.009,-0.0017 0.26458333,0.52916667 71.241701 0 0 -0.009,-0.0017 0.26458333,0.52916667 71.241701 0 0 -0.009,-0.0017 0.26458333,0.52916667 71.241701 0 0 -0.009,-0.0017 0.26458333,0.52916667 71.241701 0 0 -0.009,-0.0013 0.26458333,0.52916667 71.241701 0 0 -0.01,-9.88e-4 0.26458333,0.52916667 71.241701 0 0 -0.01,-9.88e-4 0.26458333,0.52916667 71.241701 0 0 -0.01,-9.88e-4 0.26458333,0.52916667 71.241701 0 0 -0.01,-7.04e-4 0.26458333,0.52916667 71.241701 0 0 -0.0107,-3.82e-4 0.26458333,0.52916667 71.241701 0 0 -0.01,-3.25e-4 0.26458333,0.52916667 71.241701 0 0 -0.0107,-3.83e-4 0.26458333,0.52916667 71.241701 0 0 -0.0105,2.81e-4 0.26458333,0.52916667 71.241701 0 0 -0.0106,-4e-6 0.26458333,0.52916667 71.241701 0 0 -0.0108,3.77e-4 0.26458333,0.52916667 71.241701 0 0 -0.0108,3.77e-4 0.26458333,0.52916667 71.241701 0 0 -0.0108,3.77e-4 0.26458333,0.52916667 71.241701 0 0 -0.011,7.89e-4 0.26458333,0.52916667 71.241701 0 0 -0.011,7.9e-4 0.26458333,0.52916667 71.241701 0 0 -0.0112,0.0013 0.26458333,0.52916667 71.241701 0 0 -0.0113,8.86e-4 0.26458333,0.52916667 71.241701 0 0 -0.0111,0.0015 0.26458333,0.52916667 71.241701 0 0 -0.0112,0.0013 0.26458333,0.52916667 71.241701 0 0 -0.0115,0.0017 0.26458333,0.52916667 71.241701 0 0 -0.0115,0.0017 0.26458333,0.52916667 71.241701 0 0 -0.0113,0.0021 0.26458333,0.52916667 71.241701 0 0 -0.0113,0.0021 0.26458333,0.52916667 71.241701 0 0 -0.0116,0.0022 0.26458333,0.52916667 71.241701 0 0 -0.0115,0.0024 0.26458333,0.52916667 71.241701 0 0 -0.0114,0.0028 0.26458333,0.52916667 71.241701 0 0 -0.0115,0.0024 0.26458333,0.52916667 71.241701 0 0 -0.0118,0.0029 0.26458333,0.52916667 71.241701 0 0 -0.0114,0.0028 0.26458333,0.52916667 71.241701 0 0 -0.0117,0.0032 0.26458333,0.52916667 71.241701 0 0 -0.0113,0.0031 0.26458333,0.52916667 71.241701 0 0 -0.0116,0.0036 0.26458333,0.52916667 71.241701 0 0 -0.0116,0.0036 0.26458333,0.52916667 71.241701 0 0 -0.0116,0.0036 z m 1.50317,-0.510503 a 0.26458333,0.52916667 71.241701 0 0 -0.0337,0.01216 0.26458333,0.52916667 71.241701 0 0 -0.0337,0.01325 0.26458333,0.52916667 71.241701 0 0 -0.0327,0.01407 0.26458333,0.52916667 71.241701 0 0 -0.0318,0.01555 0.26458333,0.52916667 71.241701 0 0 -0.0306,0.01589 0.26458333,0.52916667 71.241701 0 0 -0.0299,0.01702 0.26458333,0.52916667 71.241701 0 0 -0.0284,0.018 0.26458333,0.52916667 71.241701 0 0 -0.0269,0.01821 0.26458333,0.52916667 71.241701 0 0 -0.0256,0.01883 0.26458333,0.52916667 71.241701 0 0 -0.0238,0.01973 0.26458333,0.52916667 71.241701 0 0 -0.022,0.01984 0.26458333,0.52916667 71.241701 0 0 -0.02,0.02027 0.26458333,0.52916667 71.241701 0 0 -0.0182,0.02038 0.26458333,0.52916667 71.241701 0 0 -0.0162,0.02078 0.26458333,0.52916667 71.241701 0 0 -0.0142,0.02045 0.26458333,0.52916667 71.241701 0 0 -0.0118,0.02076 0.26458333,0.52916667 71.241701 0 0 -0.009,0.02031 0.26458333,0.52916667 71.241701 0 0 -0.007,0.01997 0.26458333,0.52916667 71.241701 0 0 -0.005,0.01985 0.26458333,0.52916667 71.241701 0 0 -0.003,0.01953 0.26458333,0.52916667 71.241701 0 0 8e-5,0.01889 0.26458333,0.52916667 71.241701 0 0 0.002,0.01825 0.26458333,0.52916667 71.241701 0 0 0.005,0.01728 l 0.33557,0.988094 a 4.4097223,8.8194443 71.241701 0 1 0.37093,-0.19765 4.4097223,8.8194443 71.241701 0 1 0.4475,-0.22074 4.4097223,8.8194443 71.241701 0 1 0.13605,-0.0622 l -0.28627,-0.842926 -0.003,-0.0088 a 0.26458333,0.52916667 71.241701 0 0 -0.003,-0.0056 0.26458333,0.52916667 71.241701 0 0 -0.003,-0.0054 0.26458333,0.52916667 71.241701 0 0 -0.003,-0.0056 0.26458333,0.52916667 71.241701 0 0 -0.003,-0.0053 0.26458333,0.52916667 71.241701 0 0 -0.003,-0.0053 0.26458333,0.52916667 71.241701 0 0 -0.004,-0.0052 0.26458333,0.52916667 71.241701 0 0 -0.004,-0.0049 0.26458333,0.52916667 71.241701 0 0 -0.004,-0.0049 0.26458333,0.52916667 71.241701 0 0 -0.004,-0.0049 0.26458333,0.52916667 71.241701 0 0 -0.005,-0.0046 0.26458333,0.52916667 71.241701 0 0 -0.005,-0.0046 0.26458333,0.52916667 71.241701 0 0 -0.005,-0.0046 0.26458333,0.52916667 71.241701 0 0 -0.006,-0.0039 0.26458333,0.52916667 71.241701 0 0 -0.006,-0.0043 0.26458333,0.52916667 71.241701 0 0 -0.006,-0.0039 0.26458333,0.52916667 71.241701 0 0 -0.006,-0.0039 0.26458333,0.52916667 71.241701 0 0 -0.007,-0.0036 0.26458333,0.52916667 71.241701 0 0 -0.006,-0.0036 0.26458333,0.52916667 71.241701 0 0 -0.007,-0.0036 0.26458333,0.52916667 71.241701 0 0 -0.007,-0.0036 0.26458333,0.52916667 71.241701 0 0 -0.007,-0.003 0.26458333,0.52916667 71.241701 0 0 -0.007,-0.003 0.26458333,0.52916667 71.241701 0 0 -0.007,-0.003 0.26458333,0.52916667 71.241701 0 0 -0.007,-0.003 0.26458333,0.52916667 71.241701 0 0 -0.008,-0.0027 0.26458333,0.52916667 71.241701 0 0 -0.008,-0.0023 0.26458333,0.52916667 71.241701 0 0 -0.008,-0.0023 0.26458333,0.52916667 71.241701 0 0 -0.008,-0.0023 0.26458333,0.52916667 71.241701 0 0 -0.009,-0.002 0.26458333,0.52916667 71.241701 0 0 -0.009,-0.0017 0.26458333,0.52916667 71.241701 0 0 -0.009,-0.0017 0.26458333,0.52916667 71.241701 0 0 -0.009,-0.0017 0.26458333,0.52916667 71.241701 0 0 -0.009,-0.0017 0.26458333,0.52916667 71.241701 0 0 -0.009,-0.0013 0.26458333,0.52916667 71.241701 0 0 -0.01,-9.88e-4 0.26458333,0.52916667 71.241701 0 0 -0.01,-9.88e-4 0.26458333,0.52916667 71.241701 0 0 -0.01,-9.88e-4 0.26458333,0.52916667 71.241701 0 0 -0.01,-7.04e-4 0.26458333,0.52916667 71.241701 0 0 -0.0107,-3.82e-4 0.26458333,0.52916667 71.241701 0 0 -0.01,-3.26e-4 0.26458333,0.52916667 71.241701 0 0 -0.0107,-3.82e-4 0.26458333,0.52916667 71.241701 0 0 -0.0105,2.8e-4 0.26458333,0.52916667 71.241701 0 0 -0.0106,-3e-6 0.26458333,0.52916667 71.241701 0 0 -0.0108,3.77e-4 0.26458333,0.52916667 71.241701 0 0 -0.0108,3.77e-4 0.26458333,0.52916667 71.241701 0 0 -0.0108,3.76e-4 0.26458333,0.52916667 71.241701 0 0 -0.011,7.9e-4 0.26458333,0.52916667 71.241701 0 0 -0.011,7.9e-4 0.26458333,0.52916667 71.241701 0 0 -0.0112,0.0013 0.26458333,0.52916667 71.241701 0 0 -0.0113,8.87e-4 0.26458333,0.52916667 71.241701 0 0 -0.0111,0.0015 0.26458333,0.52916667 71.241701 0 0 -0.0112,0.0013 0.26458333,0.52916667 71.241701 0 0 -0.0115,0.0017 0.26458333,0.52916667 71.241701 0 0 -0.0115,0.0017 0.26458333,0.52916667 71.241701 0 0 -0.0113,0.0021 0.26458333,0.52916667 71.241701 0 0 -0.0113,0.0021 0.26458333,0.52916667 71.241701 0 0 -0.0116,0.0022 0.26458333,0.52916667 71.241701 0 0 -0.0115,0.0024 0.26458333,0.52916667 71.241701 0 0 -0.0114,0.0028 0.26458333,0.52916667 71.241701 0 0 -0.0115,0.0024 0.26458333,0.52916667 71.241701 0 0 -0.0118,0.0029 0.26458333,0.52916667 71.241701 0 0 -0.0114,0.0028 0.26458333,0.52916667 71.241701 0 0 -0.0117,0.0032 0.26458333,0.52916667 71.241701 0 0 -0.0113,0.0031 0.26458333,0.52916667 71.241701 0 0 -0.0116,0.0036 0.26458333,0.52916667 71.241701 0 0 -0.0116,0.0036 0.26458333,0.52916667 71.241701 0 0 -0.0116,0.0036 z m 1.50318,-0.510503 a 0.26458333,0.52916667 71.241701 0 0 -0.0337,0.01216 0.26458333,0.52916667 71.241701 0 0 -0.0337,0.01325 0.26458333,0.52916667 71.241701 0 0 -0.0327,0.01407 0.26458333,0.52916667 71.241701 0 0 -0.0318,0.01555 0.26458333,0.52916667 71.241701 0 0 -0.0306,0.01589 0.26458333,0.52916667 71.241701 0 0 -0.0299,0.01702 0.26458333,0.52916667 71.241701 0 0 -0.0284,0.018 0.26458333,0.52916667 71.241701 0 0 -0.027,0.01824 0.26458333,0.52916667 71.241701 0 0 -0.0256,0.01883 0.26458333,0.52916667 71.241701 0 0 -0.0238,0.01973 0.26458333,0.52916667 71.241701 0 0 -0.022,0.01983 0.26458333,0.52916667 71.241701 0 0 -0.02,0.02027 0.26458333,0.52916667 71.241701 0 0 -0.0182,0.02038 0.26458333,0.52916667 71.241701 0 0 -0.0163,0.02081 0.26458333,0.52916667 71.241701 0 0 -0.0142,0.02045 0.26458333,0.52916667 71.241701 0 0 -0.0119,0.02076 0.26458333,0.52916667 71.241701 0 0 -0.009,0.02031 0.26458333,0.52916667 71.241701 0 0 -0.007,0.01997 0.26458333,0.52916667 71.241701 0 0 -0.005,0.01985 0.26458333,0.52916667 71.241701 0 0 -0.003,0.01953 0.26458333,0.52916667 71.241701 0 0 8e-5,0.01889 0.26458333,0.52916667 71.241701 0 0 0.002,0.01825 0.26458333,0.52916667 71.241701 0 0 0.005,0.01728 l 0.27242,0.802152 a 4.4097223,8.8194443 71.241701 0 1 0.30552,-0.128863 4.4097223,8.8194443 71.241701 0 1 0.47625,-0.184301 4.4097223,8.8194443 71.241701 0 1 0.20496,-0.07246 l -0.25536,-0.751917 -0.003,-0.0088 a 0.26458333,0.52916667 71.241701 0 0 -0.003,-0.0056 0.26458333,0.52916667 71.241701 0 0 -0.003,-0.0054 0.26458333,0.52916667 71.241701 0 0 -0.003,-0.0056 0.26458333,0.52916667 71.241701 0 0 -0.003,-0.0053 0.26458333,0.52916667 71.241701 0 0 -0.003,-0.0053 0.26458333,0.52916667 71.241701 0 0 -0.004,-0.0052 0.26458333,0.52916667 71.241701 0 0 -0.004,-0.0049 0.26458333,0.52916667 71.241701 0 0 -0.004,-0.0049 0.26458333,0.52916667 71.241701 0 0 -0.004,-0.0049 0.26458333,0.52916667 71.241701 0 0 -0.005,-0.0046 0.26458333,0.52916667 71.241701 0 0 -0.005,-0.0046 0.26458333,0.52916667 71.241701 0 0 -0.005,-0.0046 0.26458333,0.52916667 71.241701 0 0 -0.006,-0.0039 0.26458333,0.52916667 71.241701 0 0 -0.006,-0.0043 0.26458333,0.52916667 71.241701 0 0 -0.006,-0.0039 0.26458333,0.52916667 71.241701 0 0 -0.006,-0.0039 0.26458333,0.52916667 71.241701 0 0 -0.007,-0.0036 0.26458333,0.52916667 71.241701 0 0 -0.007,-0.0036 0.26458333,0.52916667 71.241701 0 0 -0.007,-0.0036 0.26458333,0.52916667 71.241701 0 0 -0.007,-0.0036 0.26458333,0.52916667 71.241701 0 0 -0.007,-0.003 0.26458333,0.52916667 71.241701 0 0 -0.007,-0.003 0.26458333,0.52916667 71.241701 0 0 -0.007,-0.003 0.26458333,0.52916667 71.241701 0 0 -0.007,-0.003 0.26458333,0.52916667 71.241701 0 0 -0.008,-0.0027 0.26458333,0.52916667 71.241701 0 0 -0.008,-0.0023 0.26458333,0.52916667 71.241701 0 0 -0.008,-0.0023 0.26458333,0.52916667 71.241701 0 0 -0.008,-0.0023 0.26458333,0.52916667 71.241701 0 0 -0.009,-0.002 0.26458333,0.52916667 71.241701 0 0 -0.009,-0.0017 0.26458333,0.52916667 71.241701 0 0 -0.009,-0.0017 0.26458333,0.52916667 71.241701 0 0 -0.009,-0.0017 0.26458333,0.52916667 71.241701 0 0 -0.009,-0.0017 0.26458333,0.52916667 71.241701 0 0 -0.009,-0.0013 0.26458333,0.52916667 71.241701 0 0 -0.01,-9.89e-4 0.26458333,0.52916667 71.241701 0 0 -0.01,-9.88e-4 0.26458333,0.52916667 71.241701 0 0 -0.01,-9.88e-4 0.26458333,0.52916667 71.241701 0 0 -0.01,-7.04e-4 0.26458333,0.52916667 71.241701 0 0 -0.0107,-3.82e-4 0.26458333,0.52916667 71.241701 0 0 -0.01,-3.25e-4 0.26458333,0.52916667 71.241701 0 0 -0.0107,-3.83e-4 0.26458333,0.52916667 71.241701 0 0 -0.0105,2.81e-4 0.26458333,0.52916667 71.241701 0 0 -0.0106,-4e-6 0.26458333,0.52916667 71.241701 0 0 -0.0107,3.77e-4 0.26458333,0.52916667 71.241701 0 0 -0.0108,3.77e-4 0.26458333,0.52916667 71.241701 0 0 -0.0108,3.77e-4 0.26458333,0.52916667 71.241701 0 0 -0.011,7.9e-4 0.26458333,0.52916667 71.241701 0 0 -0.011,7.89e-4 0.26458333,0.52916667 71.241701 0 0 -0.0112,0.0013 0.26458333,0.52916667 71.241701 0 0 -0.0113,8.86e-4 0.26458333,0.52916667 71.241701 0 0 -0.0111,0.0015 0.26458333,0.52916667 71.241701 0 0 -0.0112,0.0013 0.26458333,0.52916667 71.241701 0 0 -0.0115,0.0017 0.26458333,0.52916667 71.241701 0 0 -0.0115,0.0017 0.26458333,0.52916667 71.241701 0 0 -0.0113,0.0021 0.26458333,0.52916667 71.241701 0 0 -0.0113,0.0021 0.26458333,0.52916667 71.241701 0 0 -0.0116,0.0022 0.26458333,0.52916667 71.241701 0 0 -0.0115,0.0024 0.26458333,0.52916667 71.241701 0 0 -0.0114,0.0028 0.26458333,0.52916667 71.241701 0 0 -0.0115,0.0024 0.26458333,0.52916667 71.241701 0 0 -0.0118,0.0029 0.26458333,0.52916667 71.241701 0 0 -0.0114,0.0028 0.26458333,0.52916667 71.241701 0 0 -0.0117,0.0032 0.26458333,0.52916667 71.241701 0 0 -0.0113,0.0031 0.26458333,0.52916667 71.241701 0 0 -0.0116,0.0036 0.26458333,0.52916667 71.241701 0 0 -0.0116,0.0036 0.26458333,0.52916667 71.241701 0 0 -0.0116,0.0036 z m 1.50318,-0.510503 a 0.26458333,0.52916667 71.241701 0 0 -0.0337,0.01216 0.26458333,0.52916667 71.241701 0 0 -0.0337,0.01325 0.26458333,0.52916667 71.241701 0 0 -0.0327,0.01407 0.26458333,0.52916667 71.241701 0 0 -0.0318,0.01555 0.26458333,0.52916667 71.241701 0 0 -0.0306,0.01589 0.26458333,0.52916667 71.241701 0 0 -0.0299,0.01702 0.26458333,0.52916667 71.241701 0 0 -0.0284,0.018 0.26458333,0.52916667 71.241701 0 0 -0.027,0.01824 0.26458333,0.52916667 71.241701 0 0 -0.0256,0.01883 0.26458333,0.52916667 71.241701 0 0 -0.0238,0.01973 0.26458333,0.52916667 71.241701 0 0 -0.022,0.01984 0.26458333,0.52916667 71.241701 0 0 -0.02,0.02027 0.26458333,0.52916667 71.241701 0 0 -0.0182,0.02038 0.26458333,0.52916667 71.241701 0 0 -0.0163,0.02081 0.26458333,0.52916667 71.241701 0 0 -0.0142,0.02045 0.26458333,0.52916667 71.241701 0 0 -0.0119,0.02076 0.26458333,0.52916667 71.241701 0 0 -0.009,0.02031 0.26458333,0.52916667 71.241701 0 0 -0.007,0.01997 0.26458333,0.52916667 71.241701 0 0 -0.005,0.01985 0.26458333,0.52916667 71.241701 0 0 -0.003,0.01953 0.26458333,0.52916667 71.241701 0 0 8e-5,0.01889 0.26458333,0.52916667 71.241701 0 0 0.002,0.01825 0.26458333,0.52916667 71.241701 0 0 0.005,0.01728 l 0.25647,0.755177 a 4.4097223,8.8194443 71.241701 0 1 0.10963,-0.03501 4.4097223,8.8194443 71.241701 0 1 0.16684,-0.05191 4.4097223,8.8194443 71.241701 0 1 0.16718,-0.04981 4.4097223,8.8194443 71.241701 0 1 0.1676,-0.04858 4.4097223,8.8194443 71.241701 0 1 0.16796,-0.04648 4.4097223,8.8194443 71.241701 0 1 0.16774,-0.04496 4.4097223,8.8194443 71.241701 0 1 0.0706,-0.01817 l -0.27021,-0.795631 -0.003,-0.0088 a 0.26458333,0.52916667 71.241701 0 0 -0.003,-0.0056 0.26458333,0.52916667 71.241701 0 0 -0.003,-0.0054 0.26458333,0.52916667 71.241701 0 0 -0.003,-0.0056 0.26458333,0.52916667 71.241701 0 0 -0.003,-0.0053 0.26458333,0.52916667 71.241701 0 0 -0.003,-0.0053 0.26458333,0.52916667 71.241701 0 0 -0.004,-0.0052 0.26458333,0.52916667 71.241701 0 0 -0.004,-0.0049 0.26458333,0.52916667 71.241701 0 0 -0.004,-0.0049 0.26458333,0.52916667 71.241701 0 0 -0.004,-0.0049 0.26458333,0.52916667 71.241701 0 0 -0.005,-0.0046 0.26458333,0.52916667 71.241701 0 0 -0.005,-0.0046 0.26458333,0.52916667 71.241701 0 0 -0.005,-0.0046 0.26458333,0.52916667 71.241701 0 0 -0.006,-0.0039 0.26458333,0.52916667 71.241701 0 0 -0.006,-0.0043 0.26458333,0.52916667 71.241701 0 0 -0.006,-0.0039 0.26458333,0.52916667 71.241701 0 0 -0.006,-0.0039 0.26458333,0.52916667 71.241701 0 0 -0.007,-0.0036 0.26458333,0.52916667 71.241701 0 0 -0.007,-0.0036 0.26458333,0.52916667 71.241701 0 0 -0.007,-0.0036 0.26458333,0.52916667 71.241701 0 0 -0.007,-0.0036 0.26458333,0.52916667 71.241701 0 0 -0.007,-0.003 0.26458333,0.52916667 71.241701 0 0 -0.007,-0.003 0.26458333,0.52916667 71.241701 0 0 -0.007,-0.003 0.26458333,0.52916667 71.241701 0 0 -0.007,-0.003 0.26458333,0.52916667 71.241701 0 0 -0.008,-0.0027 0.26458333,0.52916667 71.241701 0 0 -0.008,-0.0023 0.26458333,0.52916667 71.241701 0 0 -0.008,-0.0023 0.26458333,0.52916667 71.241701 0 0 -0.008,-0.0023 0.26458333,0.52916667 71.241701 0 0 -0.009,-0.002 0.26458333,0.52916667 71.241701 0 0 -0.009,-0.0017 0.26458333,0.52916667 71.241701 0 0 -0.009,-0.0017 0.26458333,0.52916667 71.241701 0 0 -0.009,-0.0017 0.26458333,0.52916667 71.241701 0 0 -0.009,-0.0017 0.26458333,0.52916667 71.241701 0 0 -0.009,-0.0013 0.26458333,0.52916667 71.241701 0 0 -0.01,-9.88e-4 0.26458333,0.52916667 71.241701 0 0 -0.01,-9.88e-4 0.26458333,0.52916667 71.241701 0 0 -0.01,-9.88e-4 0.26458333,0.52916667 71.241701 0 0 -0.01,-7.04e-4 0.26458333,0.52916667 71.241701 0 0 -0.0107,-3.82e-4 0.26458333,0.52916667 71.241701 0 0 -0.01,-3.26e-4 0.26458333,0.52916667 71.241701 0 0 -0.0107,-3.82e-4 0.26458333,0.52916667 71.241701 0 0 -0.0105,2.8e-4 0.26458333,0.52916667 71.241701 0 0 -0.0106,-3e-6 0.26458333,0.52916667 71.241701 0 0 -0.0108,3.77e-4 0.26458333,0.52916667 71.241701 0 0 -0.0108,3.77e-4 0.26458333,0.52916667 71.241701 0 0 -0.0108,3.76e-4 0.26458333,0.52916667 71.241701 0 0 -0.011,7.9e-4 0.26458333,0.52916667 71.241701 0 0 -0.011,7.9e-4 0.26458333,0.52916667 71.241701 0 0 -0.0112,0.0013 0.26458333,0.52916667 71.241701 0 0 -0.0113,8.87e-4 0.26458333,0.52916667 71.241701 0 0 -0.0111,0.0015 0.26458333,0.52916667 71.241701 0 0 -0.0112,0.0013 0.26458333,0.52916667 71.241701 0 0 -0.0115,0.0017 0.26458333,0.52916667 71.241701 0 0 -0.0115,0.0017 0.26458333,0.52916667 71.241701 0 0 -0.0113,0.0021 0.26458333,0.52916667 71.241701 0 0 -0.0113,0.0021 0.26458333,0.52916667 71.241701 0 0 -0.0116,0.0022 0.26458333,0.52916667 71.241701 0 0 -0.0115,0.0024 0.26458333,0.52916667 71.241701 0 0 -0.0114,0.0028 0.26458333,0.52916667 71.241701 0 0 -0.0115,0.0024 0.26458333,0.52916667 71.241701 0 0 -0.0118,0.0029 0.26458333,0.52916667 71.241701 0 0 -0.0114,0.0028 0.26458333,0.52916667 71.241701 0 0 -0.0117,0.0032 0.26458333,0.52916667 71.241701 0 0 -0.0113,0.0031 0.26458333,0.52916667 71.241701 0 0 -0.0116,0.0036 0.26458333,0.52916667 71.241701 0 0 -0.0116,0.0036 0.26458333,0.52916667 71.241701 0 0 -0.0116,0.0036 z m 1.50318,-0.510503 a 0.26458333,0.52916667 71.241701 0 0 -0.0337,0.01216 0.26458333,0.52916667 71.241701 0 0 -0.0337,0.01325 0.26458333,0.52916667 71.241701 0 0 -0.0327,0.01407 0.26458333,0.52916667 71.241701 0 0 -0.0318,0.01555 0.26458333,0.52916667 71.241701 0 0 -0.0306,0.01589 0.26458333,0.52916667 71.241701 0 0 -0.0299,0.01702 0.26458333,0.52916667 71.241701 0 0 -0.0284,0.018 0.26458333,0.52916667 71.241701 0 0 -0.027,0.01824 0.26458333,0.52916667 71.241701 0 0 -0.0256,0.01883 0.26458333,0.52916667 71.241701 0 0 -0.0238,0.01973 0.26458333,0.52916667 71.241701 0 0 -0.022,0.01984 0.26458333,0.52916667 71.241701 0 0 -0.02,0.02027 0.26458333,0.52916667 71.241701 0 0 -0.0182,0.02038 0.26458333,0.52916667 71.241701 0 0 -0.0162,0.02078 0.26458333,0.52916667 71.241701 0 0 -0.0142,0.02045 0.26458333,0.52916667 71.241701 0 0 -0.0118,0.02077 0.26458333,0.52916667 71.241701 0 0 -0.009,0.02031 0.26458333,0.52916667 71.241701 0 0 -0.007,0.01997 0.26458333,0.52916667 71.241701 0 0 -0.005,0.01985 0.26458333,0.52916667 71.241701 0 0 -0.003,0.01953 0.26458333,0.52916667 71.241701 0 0 8e-5,0.01889 0.26458333,0.52916667 71.241701 0 0 0.002,0.01825 0.26458333,0.52916667 71.241701 0 0 0.005,0.01728 l 0.28749,0.846515 a 4.4097223,8.8194443 71.241701 0 1 0.0849,-0.01901 4.4097223,8.8194443 71.241701 0 1 0.16758,-0.03581 4.4097223,8.8194443 71.241701 0 1 0.16747,-0.03396 4.4097223,8.8194443 71.241701 0 1 0.16738,-0.0321 4.4097223,8.8194443 71.241701 0 1 0.16663,-0.03003 4.4097223,8.8194443 71.241701 0 1 0.16652,-0.02818 4.4097223,8.8194443 71.241701 0 1 0.12942,-0.02067 l -0.33358,-0.98222 -0.003,-0.0088 a 0.26458333,0.52916667 71.241701 0 0 -0.003,-0.0056 0.26458333,0.52916667 71.241701 0 0 -0.003,-0.0054 0.26458333,0.52916667 71.241701 0 0 -0.003,-0.0056 0.26458333,0.52916667 71.241701 0 0 -0.003,-0.0053 0.26458333,0.52916667 71.241701 0 0 -0.003,-0.0053 0.26458333,0.52916667 71.241701 0 0 -0.004,-0.0052 0.26458333,0.52916667 71.241701 0 0 -0.004,-0.0049 0.26458333,0.52916667 71.241701 0 0 -0.004,-0.0049 0.26458333,0.52916667 71.241701 0 0 -0.004,-0.0049 0.26458333,0.52916667 71.241701 0 0 -0.005,-0.0046 0.26458333,0.52916667 71.241701 0 0 -0.005,-0.0046 0.26458333,0.52916667 71.241701 0 0 -0.005,-0.0046 0.26458333,0.52916667 71.241701 0 0 -0.006,-0.0039 0.26458333,0.52916667 71.241701 0 0 -0.006,-0.0043 0.26458333,0.52916667 71.241701 0 0 -0.006,-0.0039 0.26458333,0.52916667 71.241701 0 0 -0.006,-0.0039 0.26458333,0.52916667 71.241701 0 0 -0.007,-0.0036 0.26458333,0.52916667 71.241701 0 0 -0.007,-0.0036 0.26458333,0.52916667 71.241701 0 0 -0.006,-0.0036 0.26458333,0.52916667 71.241701 0 0 -0.007,-0.0036 0.26458333,0.52916667 71.241701 0 0 -0.007,-0.003 0.26458333,0.52916667 71.241701 0 0 -0.007,-0.003 0.26458333,0.52916667 71.241701 0 0 -0.007,-0.003 0.26458333,0.52916667 71.241701 0 0 -0.007,-0.003 0.26458333,0.52916667 71.241701 0 0 -0.007,-0.003 0.26458333,0.52916667 71.241701 0 0 -0.008,-0.0023 0.26458333,0.52916667 71.241701 0 0 -0.008,-0.0023 0.26458333,0.52916667 71.241701 0 0 -0.008,-0.0023 0.26458333,0.52916667 71.241701 0 0 -0.009,-0.002 0.26458333,0.52916667 71.241701 0 0 -0.009,-0.0017 0.26458333,0.52916667 71.241701 0 0 -0.009,-0.0017 0.26458333,0.52916667 71.241701 0 0 -0.009,-0.0017 0.26458333,0.52916667 71.241701 0 0 -0.009,-0.0017 0.26458333,0.52916667 71.241701 0 0 -0.009,-0.0013 0.26458333,0.52916667 71.241701 0 0 -0.01,-9.88e-4 0.26458333,0.52916667 71.241701 0 0 -0.01,-9.88e-4 0.26458333,0.52916667 71.241701 0 0 -0.01,-9.88e-4 0.26458333,0.52916667 71.241701 0 0 -0.01,-7.04e-4 0.26458333,0.52916667 71.241701 0 0 -0.0107,-3.82e-4 0.26458333,0.52916667 71.241701 0 0 -0.01,-3.25e-4 0.26458333,0.52916667 71.241701 0 0 -0.0107,-3.83e-4 0.26458333,0.52916667 71.241701 0 0 -0.0105,2.81e-4 0.26458333,0.52916667 71.241701 0 0 -0.0106,-4e-6 0.26458333,0.52916667 71.241701 0 0 -0.0108,3.77e-4 0.26458333,0.52916667 71.241701 0 0 -0.0108,3.77e-4 0.26458333,0.52916667 71.241701 0 0 -0.0108,3.77e-4 0.26458333,0.52916667 71.241701 0 0 -0.011,7.89e-4 0.26458333,0.52916667 71.241701 0 0 -0.011,7.9e-4 0.26458333,0.52916667 71.241701 0 0 -0.0112,0.0013 0.26458333,0.52916667 71.241701 0 0 -0.0113,8.86e-4 0.26458333,0.52916667 71.241701 0 0 -0.0115,0.0017 0.26458333,0.52916667 71.241701 0 0 -0.0112,0.0013 0.26458333,0.52916667 71.241701 0 0 -0.0115,0.0017 0.26458333,0.52916667 71.241701 0 0 -0.0111,0.0015 0.26458333,0.52916667 71.241701 0 0 -0.0113,0.0021 0.26458333,0.52916667 71.241701 0 0 -0.0113,0.0021 0.26458333,0.52916667 71.241701 0 0 -0.0116,0.0022 0.26458333,0.52916667 71.241701 0 0 -0.0115,0.0024 0.26458333,0.52916667 71.241701 0 0 -0.0114,0.0028 0.26458333,0.52916667 71.241701 0 0 -0.0115,0.0024 0.26458333,0.52916667 71.241701 0 0 -0.0118,0.0029 0.26458333,0.52916667 71.241701 0 0 -0.0114,0.0028 0.26458333,0.52916667 71.241701 0 0 -0.0117,0.0032 0.26458333,0.52916667 71.241701 0 0 -0.0113,0.0031 0.26458333,0.52916667 71.241701 0 0 -0.0118,0.0037 0.26458333,0.52916667 71.241701 0 0 -0.0116,0.0036 0.26458333,0.52916667 71.241701 0 0 -0.0116,0.0036 z m 1.50317,-0.510503 a 0.26458333,0.52916667 71.241701 0 0 -0.0337,0.01216 0.26458333,0.52916667 71.241701 0 0 -0.0337,0.01325 0.26458333,0.52916667 71.241701 0 0 -0.0327,0.01407 0.26458333,0.52916667 71.241701 0 0 -0.0318,0.01555 0.26458333,0.52916667 71.241701 0 0 -0.0306,0.01589 0.26458333,0.52916667 71.241701 0 0 -0.0299,0.01702 0.26458333,0.52916667 71.241701 0 0 -0.0284,0.018 0.26458333,0.52916667 71.241701 0 0 -0.027,0.01824 0.26458333,0.52916667 71.241701 0 0 -0.0256,0.01883 0.26458333,0.52916667 71.241701 0 0 -0.0238,0.01973 0.26458333,0.52916667 71.241701 0 0 -0.022,0.01984 0.26458333,0.52916667 71.241701 0 0 -0.02,0.02027 0.26458333,0.52916667 71.241701 0 0 -0.0182,0.02038 0.26458333,0.52916667 71.241701 0 0 -0.0163,0.02081 0.26458333,0.52916667 71.241701 0 0 -0.0142,0.02045 0.26458333,0.52916667 71.241701 0 0 -0.0119,0.02076 0.26458333,0.52916667 71.241701 0 0 -0.009,0.02031 0.26458333,0.52916667 71.241701 0 0 -0.007,0.01997 0.26458333,0.52916667 71.241701 0 0 -0.005,0.01985 0.26458333,0.52916667 71.241701 0 0 -0.003,0.01953 0.26458333,0.52916667 71.241701 0 0 8e-5,0.01889 0.26458333,0.52916667 71.241701 0 0 0.002,0.01825 0.26458333,0.52916667 71.241701 0 0 0.005,0.01728 l 0.36805,1.08372 a 4.4097223,8.8194443 71.241701 0 1 0.1595,-0.01779 4.4097223,8.8194443 71.241701 0 1 0.16234,-0.01693 4.4097223,8.8194443 71.241701 0 1 0.16137,-0.01442 4.4097223,8.8194443 71.241701 0 1 0.16052,-0.01267 4.4097223,8.8194443 71.241701 0 1 0.15933,-0.01081 4.4097223,8.8194443 71.241701 0 1 0.15857,-0.0087 4.4097223,8.8194443 71.241701 0 1 0.12656,-0.0055 l -0.45245,-1.33224 -0.003,-0.0088 a 0.26458333,0.52916667 71.241701 0 0 -0.003,-0.0056 0.26458333,0.52916667 71.241701 0 0 -0.003,-0.0054 0.26458333,0.52916667 71.241701 0 0 -0.003,-0.0056 0.26458333,0.52916667 71.241701 0 0 -0.003,-0.0053 0.26458333,0.52916667 71.241701 0 0 -0.003,-0.0053 0.26458333,0.52916667 71.241701 0 0 -0.004,-0.0052 0.26458333,0.52916667 71.241701 0 0 -0.004,-0.0049 0.26458333,0.52916667 71.241701 0 0 -0.004,-0.0049 0.26458333,0.52916667 71.241701 0 0 -0.004,-0.0049 0.26458333,0.52916667 71.241701 0 0 -0.005,-0.0046 0.26458333,0.52916667 71.241701 0 0 -0.005,-0.0046 0.26458333,0.52916667 71.241701 0 0 -0.005,-0.0046 0.26458333,0.52916667 71.241701 0 0 -0.006,-0.0039 0.26458333,0.52916667 71.241701 0 0 -0.006,-0.0043 0.26458333,0.52916667 71.241701 0 0 -0.006,-0.0039 0.26458333,0.52916667 71.241701 0 0 -0.006,-0.0039 0.26458333,0.52916667 71.241701 0 0 -0.007,-0.0036 0.26458333,0.52916667 71.241701 0 0 -0.006,-0.0036 0.26458333,0.52916667 71.241701 0 0 -0.007,-0.0036 0.26458333,0.52916667 71.241701 0 0 -0.007,-0.0036 0.26458333,0.52916667 71.241701 0 0 -0.007,-0.003 0.26458333,0.52916667 71.241701 0 0 -0.007,-0.003 0.26458333,0.52916667 71.241701 0 0 -0.007,-0.003 0.26458333,0.52916667 71.241701 0 0 -0.007,-0.003 0.26458333,0.52916667 71.241701 0 0 -0.007,-0.003 0.26458333,0.52916667 71.241701 0 0 -0.008,-0.0023 0.26458333,0.52916667 71.241701 0 0 -0.008,-0.0023 0.26458333,0.52916667 71.241701 0 0 -0.008,-0.0023 0.26458333,0.52916667 71.241701 0 0 -0.009,-0.002 0.26458333,0.52916667 71.241701 0 0 -0.009,-0.0017 0.26458333,0.52916667 71.241701 0 0 -0.009,-0.0017 0.26458333,0.52916667 71.241701 0 0 -0.009,-0.0017 0.26458333,0.52916667 71.241701 0 0 -0.009,-0.0017 0.26458333,0.52916667 71.241701 0 0 -0.009,-0.0013 0.26458333,0.52916667 71.241701 0 0 -0.01,-9.88e-4 0.26458333,0.52916667 71.241701 0 0 -0.01,-9.88e-4 0.26458333,0.52916667 71.241701 0 0 -0.01,-9.88e-4 0.26458333,0.52916667 71.241701 0 0 -0.01,-7.04e-4 0.26458333,0.52916667 71.241701 0 0 -0.0107,-3.82e-4 0.26458333,0.52916667 71.241701 0 0 -0.01,-3.25e-4 0.26458333,0.52916667 71.241701 0 0 -0.0107,-3.83e-4 0.26458333,0.52916667 71.241701 0 0 -0.0105,2.81e-4 0.26458333,0.52916667 71.241701 0 0 -0.0106,-4e-6 0.26458333,0.52916667 71.241701 0 0 -0.0108,3.77e-4 0.26458333,0.52916667 71.241701 0 0 -0.0107,3.77e-4 0.26458333,0.52916667 71.241701 0 0 -0.0108,3.77e-4 0.26458333,0.52916667 71.241701 0 0 -0.011,7.89e-4 0.26458333,0.52916667 71.241701 0 0 -0.011,7.9e-4 0.26458333,0.52916667 71.241701 0 0 -0.0112,0.0013 0.26458333,0.52916667 71.241701 0 0 -0.0113,8.86e-4 0.26458333,0.52916667 71.241701 0 0 -0.0111,0.0015 0.26458333,0.52916667 71.241701 0 0 -0.0112,0.0013 0.26458333,0.52916667 71.241701 0 0 -0.0115,0.0017 0.26458333,0.52916667 71.241701 0 0 -0.0115,0.0017 0.26458333,0.52916667 71.241701 0 0 -0.0113,0.0021 0.26458333,0.52916667 71.241701 0 0 -0.0113,0.0021 0.26458333,0.52916667 71.241701 0 0 -0.0116,0.0022 0.26458333,0.52916667 71.241701 0 0 -0.0115,0.0024 0.26458333,0.52916667 71.241701 0 0 -0.0114,0.0028 0.26458333,0.52916667 71.241701 0 0 -0.0115,0.0024 0.26458333,0.52916667 71.241701 0 0 -0.0118,0.0029 0.26458333,0.52916667 71.241701 0 0 -0.0114,0.0028 0.26458333,0.52916667 71.241701 0 0 -0.0117,0.0032 0.26458333,0.52916667 71.241701 0 0 -0.0113,0.0031 0.26458333,0.52916667 71.241701 0 0 -0.0116,0.0036 0.26458333,0.52916667 71.241701 0 0 -0.0116,0.0036 0.26458333,0.52916667 71.241701 0 0 -0.0116,0.0036 z m -3.34689,2.626928 c -0.1384,0.04738 -0.27617,0.09643 -0.41315,0.147283 -0.15991,0.0592 -0.31872,0.12067 -0.47625,0.1843 -0.15749,0.0636 -0.31363,0.1294 -0.46823,0.19721 -0.15464,0.0679 -0.30767,0.13783 -0.45889,0.20969 -0.1511,0.0717 -0.30032,0.14532 -0.44749,0.22074 -0.1473,0.0755 -0.29249,0.15288 -0.43535,0.23189 -0.14281,0.0789 -0.28324,0.15946 -0.42111,0.24166 -0.13782,0.0823 -0.27306,0.16603 -0.40549,0.25123 -0.13255,0.085 -0.26226,0.17144 -0.38901,0.25909 -0.12677,0.0878 -0.25047,0.17694 -0.37097,0.26716 -0.12045,0.09 -0.23765,0.18114 -0.35145,0.27326 -0.016,0.0139 -0.0321,0.0271 -0.048,0.0407 l 0.43122,0.50591 c 0.0316,-0.0249 0.0619,-0.0502 0.0939,-0.0748 0.12192,-0.0933 0.24731,-0.18527 0.37594,-0.27612 0.12869,-0.0909 0.26061,-0.18049 0.39559,-0.26861 0.13499,-0.0882 0.27296,-0.17497 0.41372,-0.2602 0.1407,-0.0852 0.28415,-0.16864 0.43011,-0.25052 0.14603,-0.0818 0.29454,-0.16181 0.44531,-0.24005 0.15085,-0.0782 0.30391,-0.15444 0.459,-0.22865 0.15492,-0.0743 0.3118,-0.14645 0.47042,-0.21648 0.15866,-0.0703 0.31903,-0.13823 0.48082,-0.20405 0.16175,-0.0657 0.32488,-0.12914 0.48919,-0.19011 0.16438,-0.0611 0.32995,-0.11945 0.4962,-0.17591 0.16571,-0.056 0.33215,-0.10964 0.49939,-0.1601 0.1673,-0.0505 0.3348,-0.0992 0.50274,-0.14486 0.16776,-0.0458 0.33576,-0.0888 0.50367,-0.12924 0.16799,-0.0404 0.33589,-0.078 0.50345,-0.11279 0.16752,-0.0348 0.33467,-0.0668 0.50115,-0.09595 0.1666,-0.02922 0.33249,-0.05557 0.49744,-0.07906 0.16489,-0.02336 0.32876,-0.04385 0.49143,-0.06139 0.16278,-0.01758 0.32425,-0.03229 0.48423,-0.04403 0.15985,-0.01172 0.31811,-0.02048 0.47464,-0.02621 0.15668,-0.0058 0.31151,-0.0086 0.46427,-0.0085 0.0298,4.33e-4 0.0596,5.81e-4 0.0891,9.83e-4 0.0279,-0.663635 0,0 0.0279,-0.663635 -0.0132,-7.79e-4 -0.0262,-6.12e-4 -0.0394,-0.0012 -0.05,-0.0013 -0.1002,-0.0024 -0.15057,-0.003 -0.0505,-7.9e-4 -0.1012,-0.0013 -0.1522,-0.0014 -0.0508,-6.1e-5 -0.10196,1.96e-4 -0.1533,7.36e-4 -0.0513,6.37e-4 -0.10292,0.0017 -0.15467,0.0031 -0.0519,0.0012 -0.10402,0.0028 -0.1563,0.0047 -0.0521,0.002 -0.1045,0.0042 -0.15706,0.0068 -0.0527,0.0026 -0.10552,0.0055 -0.15857,0.0088 -0.0529,0.0033 -0.10605,0.0069 -0.15932,0.01081 -0.0534,0.0039 -0.10686,0.0081 -0.16052,0.01269 -0.0536,0.0045 -0.10743,0.0092 -0.16136,0.01446 -0.054,0.0053 -0.10809,0.01094 -0.16235,0.0169 -0.0543,0.0058 -0.10875,0.0119 -0.1633,0.01839 -0.0544,0.0065 -0.10896,0.01345 -0.16364,0.02062 -0.0548,0.0072 -0.10976,0.01468 -0.16481,0.02249 -0.055,0.0077 -0.11014,0.01576 -0.16535,0.02415 -0.0552,0.0082 -0.11035,0.01731 -0.16567,0.02643 -0.0554,0.0091 -0.11093,0.01847 -0.16652,0.02818 -0.0554,0.0096 -0.11102,0.01971 -0.16662,0.03003 -0.0557,0.01037 -0.11154,0.02109 -0.16738,0.0321 -0.0558,0.01104 -0.11161,0.02233 -0.16748,0.03396 -0.0558,0.01167 -0.11168,0.02357 -0.16757,0.03581 -0.056,0.01227 -0.11198,0.02487 -0.168,0.03777 -0.056,0.01278 -0.11191,0.02582 -0.16788,0.03919 -0.056,0.01353 -0.11214,0.02735 -0.1682,0.04148 -0.0561,0.01398 -0.11204,0.02833 -0.16808,0.04289 -0.056,0.01467 -0.11185,0.02965 -0.16774,0.04496 -0.056,0.01521 -0.11201,0.03065 -0.16795,0.04648 -0.0559,0.01591 -0.11179,0.03205 -0.1676,0.04858 -0.0558,0.01632 -0.11148,0.033 -0.16719,0.04981 -0.0557,0.01701 -0.11129,0.03431 -0.16684,0.05191 -0.0556,0.01752 -0.11122,0.03524 -0.16671,0.05334 -0.0554,0.01815 -0.11078,0.03659 -0.16603,0.05533 -0.023,0.0078 -0.0461,0.01561 -0.0691,0.02348 z m 0.13212,1.076833 a 4.4097223,8.8194443 71.241701 0 0 -0.2189,0.0775 4.4097223,8.8194443 71.241701 0 0 -0.48919,0.19011 4.4097223,8.8194443 71.241701 0 0 -0.27856,0.11826 l 2.02528,5.96345 1.00212,-0.34033 z m 0.50106,-0.17017 1.75718,5.17403 1.00212,-0.34034 -1.74167,-5.12836 a 4.4097223,8.8194443 71.241701 0 0 -0.23932,0.0613 4.4097223,8.8194443 71.241701 0 0 -0.50274,0.14486 4.4097223,8.8194443 71.241701 0 0 -0.27562,0.0883 z m 1.53421,-0.41913 1.44255,4.24758 1.00211,-0.34034 -1.39469,-4.10666 a 4.4097223,8.8194443 71.241701 0 0 -0.29759,0.0472 4.4097223,8.8194443 71.241701 0 0 -0.50116,0.096 4.4097223,8.8194443 71.241701 0 0 -0.25124,0.0562 z m -3.50731,1.1915 a 4.4097223,8.8194443 71.241701 0 0 -0.18721,0.0862 4.4097223,8.8194443 71.241701 0 0 -0.459,0.22865 4.4097223,8.8194443 71.241701 0 0 -0.30815,0.16611 l 2.24553,6.61197 1.00211,-0.34034 z m -1.42263,0.74766 a 4.4097223,8.8194443 71.241701 0 0 -0.0991,0.0576 4.4097223,8.8194443 71.241701 0 0 -0.41372,0.2602 4.4097223,8.8194443 71.241701 0 0 -0.39559,0.2686 4.4097223,8.8194443 71.241701 0 0 -0.009,0.006 l 2.41071,7.09834 1.00212,-0.34033 z m 6.51377,-2.21218 1.07828,3.175 1.00212,-0.34033 -0.99265,-2.92285 a 4.4097223,8.8194443 71.241701 0 0 -0.4461,0.0245 4.4097223,8.8194443 71.241701 0 0 -0.48423,0.044 4.4097223,8.8194443 71.241701 0 0 -0.15741,0.0197 z m -4.17602,3.54522 a 0.88194433,0.88194434 71.241701 0 0 0.0206,0.0177 c -0.004,-0.004 -0.008,-0.007 -0.012,-0.0105 -0.003,-0.002 -0.006,-0.004 -0.009,-0.008 z" />
    <path
       id="rect31"
       style="fill:#f2dfd9;fill-opacity:1;stroke-width:0.144176"
       d="m 110.0386,95.15913 a 5.2916663,5.2916663 0 0 0 -0.36085,-0.16217 5.2916663,5.2916663 0 0 0 -0.37184,-0.13532 5.2916663,5.2916663 0 0 0 -0.38145,-0.10663 5.2916663,5.2916663 0 0 0 -0.3876,-0.078 5.2916663,5.2916663 0 0 0 -0.39282,-0.0488 5.2916663,5.2916663 0 0 0 -0.39525,-0.0195 5.2916663,5.2916663 0 0 0 -0.39562,0.0104 5.2916663,5.2916663 0 0 0 -0.39344,0.0397 5.2916663,5.2916663 0 0 0 -0.3901,0.069 5.2916663,5.2916663 0 0 0 -0.3833,0.0984 5.2916663,5.2916663 0 0 0 -0.37466,0.1263 5.2916663,5.2916663 0 0 0 -0.36462,0.15376 5.2916663,5.2916663 0 0 0 -0.35228,0.18123 5.2916663,5.2916663 0 0 0 -0.33718,0.2066 5.2916663,5.2916663 0 0 0 -0.32114,0.23127 5.2916663,5.2916663 0 0 0 -0.30281,0.25478 5.2916663,5.2916663 0 0 0 -0.28309,0.27667 5.2916663,5.2916663 0 0 0 -0.2613,0.2967 5.2916663,5.2916663 0 0 0 -0.23905,0.31581 5.2916663,5.2916663 0 0 0 -0.21402,0.33282 5.2916663,5.2916663 0 0 0 -0.18903,0.34753 l -4.700859,9.48203 14.223049,7.05129 2.33344,-4.70675 a 2.6458332,2.6458332 0 0 0 0.017,-0.0343 2.6458332,2.6458332 0 0 0 0.0294,-0.0616 2.6458332,2.6458332 0 0 0 0.028,-0.0623 2.6458332,2.6458332 0 0 0 0.0264,-0.0625 2.6458332,2.6458332 0 0 0 0.0245,-0.0634 2.6458332,2.6458332 0 0 0 0.0231,-0.0641 2.6458332,2.6458332 0 0 0 0.0213,-0.065 2.6458332,2.6458332 0 0 0 0.0196,-0.0652 2.6458332,2.6458332 0 0 0 0.018,-0.0655 2.6458332,2.6458332 0 0 0 0.0162,-0.0664 2.6458332,2.6458332 0 0 0 0.0146,-0.0666 2.6458332,2.6458332 0 0 0 0.0129,-0.0668 2.6458332,2.6458332 0 0 0 0.0109,-0.0673 2.6458332,2.6458332 0 0 0 0.01,-0.0673 2.6458332,2.6458332 0 0 0 0.008,-0.0677 2.6458332,2.6458332 0 0 0 0.006,-0.068 2.6458332,2.6458332 0 0 0 0.004,-0.0677 2.6458332,2.6458332 0 0 0 0.002,-0.0682 2.6458332,2.6458332 0 0 0 9.2e-4,-0.0682 2.6458332,2.6458332 0 0 0 -0.001,-0.0682 2.6458332,2.6458332 0 0 0 -0.002,-0.0682 2.6458332,2.6458332 0 0 0 -0.005,-0.0682 2.6458332,2.6458332 0 0 0 -0.006,-0.0677 2.6458332,2.6458332 0 0 0 -0.008,-0.0674 2.6458332,2.6458332 0 0 0 -0.01,-0.0677 2.6458332,2.6458332 0 0 0 -0.0118,-0.067 2.6458332,2.6458332 0 0 0 -0.0129,-0.067 2.6458332,2.6458332 0 0 0 -0.015,-0.0663 2.6458332,2.6458332 0 0 0 -0.0169,-0.066 2.6458332,2.6458332 0 0 0 -0.0187,-0.0658 2.6458332,2.6458332 0 0 0 -0.0199,-0.0646 2.6458332,2.6458332 0 0 0 -0.022,-0.0651 2.6458332,2.6458332 0 0 0 -0.0233,-0.0635 2.6458332,2.6458332 0 0 0 -0.0249,-0.0637 2.6458332,2.6458332 0 0 0 -0.0266,-0.0628 2.6458332,2.6458332 0 0 0 -0.0282,-0.0618 2.6458332,2.6458332 0 0 0 -0.0303,-0.0611 2.6458332,2.6458332 0 0 0 -0.0312,-0.0605 2.6458332,2.6458332 0 0 0 -0.0332,-0.0597 2.6458332,2.6458332 0 0 0 -0.0344,-0.0586 2.6458332,2.6458332 0 0 0 -0.036,-0.0577 2.6458332,2.6458332 0 0 0 -0.0374,-0.0572 2.6458332,2.6458332 0 0 0 -0.0392,-0.0558 2.6458332,2.6458332 0 0 0 -0.0402,-0.0551 2.6458332,2.6458332 0 0 0 -0.042,-0.0537 2.6458332,2.6458332 0 0 0 -0.0429,-0.053 2.6458332,2.6458332 0 0 0 -0.0443,-0.0514 2.6458332,2.6458332 0 0 0 -0.0459,-0.0504 2.6458332,2.6458332 0 0 0 -0.0471,-0.0493 2.6458332,2.6458332 0 0 0 -0.0485,-0.0477 2.6458332,2.6458332 0 0 0 -0.0494,-0.047 2.6458332,2.6458332 0 0 0 -0.0508,-0.0454 2.6458332,2.6458332 0 0 0 -0.0519,-0.0442 2.6458332,2.6458332 0 0 0 -0.0531,-0.043 2.6458332,2.6458332 0 0 0 -0.054,-0.0412 2.6458332,2.6458332 0 0 0 -0.0551,-0.04 2.6458332,2.6458332 0 0 0 -0.0563,-0.0389 2.6458332,2.6458332 0 0 0 -0.0572,-0.0371 2.6458332,2.6458332 0 0 0 -0.0579,-0.0356 2.6458332,2.6458332 0 0 0 -0.0588,-0.0337 2.6458332,2.6458332 0 0 0 -0.06,-0.0326 2.6458332,2.6458332 0 0 0 -0.0607,-0.0312 2.6458331,2.6458331 0 0 1 -0.17412,-0.0944 2.6458331,2.6458331 0 0 1 -0.16607,-0.10713 2.6458331,2.6458331 0 0 1 -0.15779,-0.11918 2.6458331,2.6458331 0 0 1 -0.14858,-0.13077 2.6458331,2.6458331 0 0 1 -0.13845,-0.14189 2.6458331,2.6458331 0 0 1 -0.12693,-0.15117 2.6458331,2.6458331 0 0 1 -0.11587,-0.16068 2.6458331,2.6458331 0 0 1 -0.10318,-0.16882 2.6458331,2.6458331 0 0 1 -0.0905,-0.1758 2.6458331,2.6458331 0 0 1 -0.0769,-0.18231 2.6458331,2.6458331 0 0 1 -0.0633,-0.18767 2.6458331,2.6458331 0 0 1 -0.0492,-0.19165 2.6458331,2.6458331 0 0 1 -0.0344,-0.19471 2.6458331,2.6458331 0 0 1 -0.0201,-0.19683 2.6458331,2.6458331 0 0 1 -0.005,-0.19804 2.6458331,2.6458331 0 0 1 0.009,-0.19717 2.6458331,2.6458331 0 0 1 0.0243,-0.19675 2.6458331,2.6458331 0 0 1 0.0391,-0.19403 2.6458331,2.6458331 0 0 1 0.0534,-0.19038 2.6458331,2.6458331 0 0 1 0.0673,-0.18581 2.6458331,2.6458331 0 0 1 0.0815,-0.18052 5.2916663,5.2916663 0 0 0 0.0593,-0.1229 5.2916663,5.2916663 0 0 0 0.0553,-0.12429 5.2916663,5.2916663 0 0 0 0.0525,-0.12568 5.2916663,5.2916663 0 0 0 0.0497,-0.12704 5.2916663,5.2916663 0 0 0 0.0458,-0.12842 5.2916663,5.2916663 0 0 0 0.0428,-0.12933 5.2916663,5.2916663 0 0 0 0.0393,-0.13048 5.2916663,5.2916663 0 0 0 0.0358,-0.13162 5.2916663,5.2916663 0 0 0 0.0326,-0.13207 5.2916663,5.2916663 0 0 0 0.0291,-0.13322 5.2916663,5.2916663 0 0 0 0.0259,-0.13366 5.2916663,5.2916663 0 0 0 0.0222,-0.13435 5.2916663,5.2916663 0 0 0 0.019,-0.1348 5.2916663,5.2916663 0 0 0 0.0153,-0.13548 5.2916663,5.2916663 0 0 0 0.012,-0.13593 5.2916663,5.2916663 0 0 0 0.008,-0.13615 5.2916663,5.2916663 0 0 0 0.005,-0.13614 5.2916663,5.2916663 0 0 0 0.002,-0.13589 5.2916663,5.2916663 0 0 0 -0.002,-0.13658 5.2916663,5.2916663 0 0 0 -0.006,-0.1361 5.2916663,5.2916663 0 0 0 -0.01,-0.13563 5.2916663,5.2916663 0 0 0 -0.0127,-0.13608 5.2916663,5.2916663 0 0 0 -0.0162,-0.13491 5.2916663,5.2916663 0 0 0 -0.0196,-0.1349 5.2916663,5.2916663 0 0 0 -0.0233,-0.13442 5.2916663,5.2916663 0 0 0 -0.0266,-0.13372 5.2916663,5.2916663 0 0 0 -0.0298,-0.13301 5.2916663,5.2916663 0 0 0 -0.0333,-0.13185 5.2916663,5.2916663 0 0 0 -0.037,-0.13138 5.2916663,5.2916663 0 0 0 -0.0404,-0.1302 5.2916663,5.2916663 0 0 0 -0.0434,-0.12881 5.2916663,5.2916663 0 0 0 -0.0467,-0.12811 5.2916663,5.2916663 0 0 0 -0.0501,-0.12694 5.2916663,5.2916663 0 0 0 -0.0534,-0.12508 5.2916663,5.2916663 0 0 0 -0.0568,-0.12391 5.2916663,5.2916663 0 0 0 -0.0598,-0.12251 5.2916663,5.2916663 0 0 0 -0.0628,-0.12111 5.2916663,5.2916663 0 0 0 -0.066,-0.11927 5.2916663,5.2916663 0 0 0 -0.0688,-0.11716 5.2916663,5.2916663 0 0 0 -0.0723,-0.116 5.2916663,5.2916663 0 0 0 -0.0746,-0.11368 5.2916663,5.2916663 0 0 0 -0.0778,-0.11183 5.2916663,5.2916663 0 0 0 -0.081,-0.10996 5.2916663,5.2916663 0 0 0 -0.0836,-0.10718 5.2916663,5.2916663 0 0 0 -0.0861,-0.10556 5.2916663,5.2916663 0 0 0 -0.0889,-0.10346 5.2916663,5.2916663 0 0 0 -0.0919,-0.10092 5.2916663,5.2916663 0 0 0 -0.0942,-0.0986 5.2916663,5.2916663 0 0 0 -0.0967,-0.0958 5.2916663,5.2916663 0 0 0 -0.099,-0.0935 5.2916663,5.2916663 0 0 0 -0.10153,-0.0907 5.2916663,5.2916663 0 0 0 -0.10384,-0.0884 5.2916663,5.2916663 0 0 0 -0.10591,-0.0854 5.2916663,5.2916663 0 0 0 -0.1082,-0.0831 5.2916663,5.2916663 0 0 0 -0.11028,-0.08 5.2916663,5.2916663 0 0 0 -0.11235,-0.077 5.2916663,5.2916663 0 0 0 -0.11418,-0.0745 5.2916663,5.2916663 0 0 0 -0.11649,-0.071 5.2916663,5.2916663 0 0 0 -0.11786,-0.0683 5.2916663,5.2916663 0 0 0 -0.11923,-0.0655 5.2916663,5.2916663 0 0 0 -0.12156,-0.0619 z m -9.08329,8.19531 1.06673,0.52885 -1.17522,2.37051 0.71116,0.35256 1.17521,-2.37051 0.71116,0.35257 -1.17522,2.37051 0.71115,0.35256 1.17522,-2.37051 1.4223,0.70513 -1.17521,2.37051 0.71115,0.35256 1.17521,-2.3705 0.71116,0.35256 -1.17522,2.37051 0.71115,0.35256 1.17522,-2.3705 0.71115,0.35256 -1.17521,2.37051 0.71115,0.35256 1.17521,-2.37051 1.4223,0.70513 -1.17521,2.37051 0.71115,0.35257 1.17522,-2.37051 0.59263,0.2938 -1.17522,2.37051 0.82968,0.41132 1.17521,-2.3705 1.06673,0.52884 -1.6453,3.31871 -12.800741,-6.34616 z" />
    <g
       id="g6644"
       transform="rotate(11.874372,-324.24417,150.27293)">
      <path
         id="rect3665"
         style="fill:#f2dfd9;fill-opacity:1;stroke-width:0.722222"
         d="M 1,10 V 50 H 6.5 V 10 Z m 2.75,1 A 1.75,1.75 0 0 1 5.5,12.75 1.75,1.75 0 0 1 3.75,14.5 1.75,1.75 0 0 1 2,12.75 1.75,1.75 0 0 1 3.75,11 Z m 0,34.5 A 1.75,1.75 0 0 1 5.5,47.25 1.75,1.75 0 0 1 3.75,49 1.75,1.75 0 0 1 2,47.25 1.75,1.75 0 0 1 3.75,45.5 Z"
         transform="scale(0.26458333)" />
      <path
         id="rect3665-9"
         style="fill:#f2dfd9;fill-opacity:1;stroke-width:0.703937"
         d="M 8.5,11 V 49 H 14 V 11 Z m 2.75,1 A 1.75,1.75 0 0 1 13,13.75 1.75,1.75 0 0 1 11.25,15.5 1.75,1.75 0 0 1 9.5,13.75 1.75,1.75 0 0 1 11.25,12 Z m 0,32.5 A 1.75,1.75 0 0 1 13,46.25 1.75,1.75 0 0 1 11.25,48 1.75,1.75 0 0 1 9.5,46.25 1.75,1.75 0 0 1 11.25,44.5 Z"
         transform="scale(0.26458333)" />
      <path
         id="rect3665-9-2"
         style="fill:#f2dfd9;fill-opacity:1;stroke-width:0.68516"
         d="m 16,12 v 36 h 5.5 V 12 Z m 2.75,1 A 1.75,1.75 0 0 1 20.5,14.75 1.75,1.75 0 0 1 18.75,16.5 1.75,1.75 0 0 1 17,14.75 1.75,1.75 0 0 1 18.75,13 Z m 0,30.5 A 1.75,1.75 0 0 1 20.5,45.25 1.75,1.75 0 0 1 18.75,47 1.75,1.75 0 0 1 17,45.25 1.75,1.75 0 0 1 18.75,43.5 Z"
         transform="scale(0.26458333)" />
      <path
         id="rect3665-9-2-7"
         style="fill:#f2dfd9;fill-opacity:1;stroke-width:0.665855"
         d="M 23.5,13 V 47 H 29 V 13 Z m 2.75,1 A 1.75,1.75 0 0 1 28,15.75 1.75,1.75 0 0 1 26.25,17.5 1.75,1.75 0 0 1 24.5,15.75 1.75,1.75 0 0 1 26.25,14 Z m 0,28.5 A 1.75,1.75 0 0 1 28,44.25 1.75,1.75 0 0 1 26.25,46 1.75,1.75 0 0 1 24.5,44.25 1.75,1.75 0 0 1 26.25,42.5 Z"
         transform="scale(0.26458333)" />
      <path
         id="rect3665-9-2-7-8"
         style="fill:#f2dfd9;fill-opacity:1;stroke-width:0.645974"
         d="m 31,14 v 32 h 5.5 V 14 Z m 2.75,1 A 1.75,1.75 0 0 1 35.5,16.75 1.75,1.75 0 0 1 33.75,18.5 1.75,1.75 0 0 1 32,16.75 1.75,1.75 0 0 1 33.75,15 Z m 0,26.5 A 1.75,1.75 0 0 1 35.5,43.25 1.75,1.75 0 0 1 33.75,45 1.75,1.75 0 0 1 32,43.25 1.75,1.75 0 0 1 33.75,41.5 Z"
         transform="scale(0.26458333)" />
      <path
         id="rect3665-9-2-7-8-6"
         style="fill:#f2dfd9;fill-opacity:1;stroke-width:0.625463"
         d="M 38.5,15 V 45 H 44 V 15 Z m 2.75,1 A 1.75,1.75 0 0 1 43,17.75 1.75,1.75 0 0 1 41.25,19.5 1.75,1.75 0 0 1 39.5,17.75 1.75,1.75 0 0 1 41.25,16 Z m 0,24.5 A 1.75,1.75 0 0 1 43,42.25 1.75,1.75 0 0 1 41.25,44 1.75,1.75 0 0 1 39.5,42.25 1.75,1.75 0 0 1 41.25,40.5 Z"
         transform="scale(0.26458333)" />
      <path
         id="rect3665-9-2-7-8-6-3"
         style="fill:#f2dfd9;fill-opacity:1;stroke-width:0.604256"
         d="m 46,16 v 28 h 5.5 V 16 Z m 2.75,1 A 1.75,1.75 0 0 1 50.5,18.75 1.75,1.75 0 0 1 48.75,20.5 1.75,1.75 0 0 1 47,18.75 1.75,1.75 0 0 1 48.75,17 Z m 0,22.5 A 1.75,1.75 0 0 1 50.5,41.25 1.75,1.75 0 0 1 48.75,43 1.75,1.75 0 0 1 47,41.25 1.75,1.75 0 0 1 48.75,39.5 Z"
         transform="scale(0.26458333)" />
      <path
         id="rect3665-9-2-7-8-6-3-3"
         style="fill:#f2dfd9;fill-opacity:1;stroke-width:0.582274"
         d="M 53.5,17 V 43 H 59 V 17 Z m 2.75,1 A 1.75,1.75 0 0 1 58,19.75 1.75,1.75 0 0 1 56.25,21.5 1.75,1.75 0 0 1 54.5,19.75 1.75,1.75 0 0 1 56.25,18 Z m 0,20.5 A 1.75,1.75 0 0 1 58,40.25 1.75,1.75 0 0 1 56.25,42 1.75,1.75 0 0 1 54.5,40.25 1.75,1.75 0 0 1 56.25,38.5 Z"
         transform="scale(0.26458333)" />
      <path
         id="path6211"
         style="fill:#f2dfd9;fill-opacity:1;stroke-width:0.23737"
         d="M 3.9017282,0.75680528 A 0.6614583,0.6614583 0 0 0 3.180248,1.3522216 0.6614583,0.6614583 0 0 0 3.7756643,2.0737018 0.6614583,0.6614583 0 0 0 4.4163751,1.7363465 L 12.76838,2.5358676 12.818805,2.009109 4.4673151,1.2096371 A 0.6614583,0.6614583 0 0 0 3.9017282,0.75680528 Z" />
      <path
         id="path6211-5"
         style="fill:#f2dfd9;fill-opacity:1;stroke-width:0.23737"
         d="m 15.233757,13.564553 a 0.6614583,0.6614583 0 0 0 0.515205,-0.78078 0.6614583,0.6614583 0 0 0 -0.780781,-0.515205 0.6614583,0.6614583 0 0 0 -0.513645,0.510379 l -8.2193822,1.68433 0.1062258,0.518394 8.2188754,-1.684225 a 0.6614583,0.6614583 0 0 0 0.673502,0.267107 z" />
    </g>
    <g
       id="g10089"
       transform="rotate(-12.994075,264.72924,-292.17802)">
      <path
         id="path7539"
         style="fill:#f2dfd9;fill-opacity:1;stroke-width:1.15442"
         d="m 0,48 v 2 A 30,9.9999996 0 0 0 30,60 30,9.9999996 0 0 0 60,50 v -2 a 30,9.9999997 0 0 1 -0.06445,0.654297 30,9.9999997 0 0 1 -0.191406,0.650391 30,9.9999997 0 0 1 -0.320313,0.646484 30,9.9999997 0 0 1 -0.445312,0.636719 30,9.9999997 0 0 1 -0.570313,0.626953 A 30,9.9999997 0 0 1 57.7168,51.826172 30,9.9999997 0 0 1 56.90625,52.423828 30,9.9999997 0 0 1 55.980469,53 a 30,9.9999997 0 0 1 -1.03711,0.556641 30,9.9999997 0 0 1 -1.142578,0.53125 30,9.9999997 0 0 1 -1.246093,0.505859 30,9.9999997 0 0 1 -1.341797,0.476562 30,9.9999997 0 0 1 -1.431641,0.447266 30,9.9999997 0 0 1 -1.517578,0.416016 30,9.9999997 0 0 1 -1.595703,0.380859 A 30,9.9999997 0 0 1 45,56.660156 a 30,9.9999997 0 0 1 -1.730469,0.308594 30,9.9999997 0 0 1 -1.789062,0.269531 30,9.9999997 0 0 1 -1.837891,0.230469 30,9.9999997 0 0 1 -1.878906,0.191406 30,9.9999997 0 0 1 -1.910156,0.148438 30,9.9999997 0 0 1 -1.9375,0.105468 30,9.9999997 0 0 1 -1.953125,0.06445 A 30,9.9999997 0 0 1 30,58 30,9.9999997 0 0 1 28.037109,57.978516 30,9.9999997 0 0 1 26.083984,57.914062 30,9.9999997 0 0 1 24.146484,57.808594 30,9.9999997 0 0 1 22.236328,57.660156 30,9.9999997 0 0 1 20.357422,57.46875 30,9.9999997 0 0 1 18.519531,57.238281 30,9.9999997 0 0 1 16.730469,56.96875 30,9.9999997 0 0 1 15,56.660156 30,9.9999997 0 0 1 13.332031,56.314453 30,9.9999997 0 0 1 11.736328,55.933594 30,9.9999997 0 0 1 10.21875,55.517578 30,9.9999997 0 0 1 8.7871094,55.070312 30,9.9999997 0 0 1 7.4453125,54.59375 30,9.9999997 0 0 1 6.1992188,54.087891 30,9.9999997 0 0 1 5.0566406,53.556641 30,9.9999997 0 0 1 4.0195312,53 30,9.9999997 0 0 1 3.09375,52.423828 30,9.9999997 0 0 1 2.2832031,51.826172 30,9.9999997 0 0 1 1.5917969,51.214844 30,9.9999997 0 0 1 1.0214844,50.587891 30,9.9999997 0 0 1 0.57617188,49.951172 30,9.9999997 0 0 1 0.25585938,49.304688 30,9.9999997 0 0 1 0.06445312,48.654297 30,9.9999997 0 0 1 0,48 Z"
         transform="scale(0.26458333)" />
      <path
         id="path8179"
         style="fill:#f2dfd9;fill-opacity:1;stroke-width:1.02587"
         d="m 0,32 v 14 a 30,9.9999993 0 0 0 9.5,7.291016 V 39.298828 A 30,9.9999994 0 0 1 8.7871094,39.070312 30,9.9999994 0 0 1 7.4453125,38.59375 30,9.9999994 0 0 1 6.1992188,38.087891 30,9.9999994 0 0 1 5.0566406,37.556641 30,9.9999994 0 0 1 4.0195312,37 30,9.9999994 0 0 1 3.09375,36.423828 30,9.9999994 0 0 1 2.2832031,35.826172 30,9.9999994 0 0 1 1.5917969,35.214844 30,9.9999994 0 0 1 1.0214844,34.587891 30,9.9999994 0 0 1 0.57617188,33.951172 30,9.9999994 0 0 1 0.25585938,33.304688 30,9.9999994 0 0 1 0.06445312,32.654297 30,9.9999994 0 0 1 0,32 Z m 60,0 a 30,9.9999994 0 0 1 -0.06445,0.654297 30,9.9999994 0 0 1 -0.191406,0.650391 30,9.9999994 0 0 1 -0.320313,0.646484 30,9.9999994 0 0 1 -0.445312,0.636719 30,9.9999994 0 0 1 -0.570313,0.626953 A 30,9.9999994 0 0 1 57.7168,35.826172 30,9.9999994 0 0 1 56.90625,36.423828 30,9.9999994 0 0 1 55.980469,37 a 30,9.9999994 0 0 1 -1.03711,0.556641 30,9.9999994 0 0 1 -1.142578,0.53125 30,9.9999994 0 0 1 -1.246093,0.505859 30,9.9999994 0 0 1 -1.341797,0.476562 A 30,9.9999994 0 0 1 50.5,39.298828 V 53.296875 A 30,9.9999993 0 0 0 60,46 Z m -48.5,7.871094 v 13.99414 a 30,9.9999993 0 0 0 17.5,2.125 V 41.994141 a 30,9.9999994 0 0 1 -0.962891,-0.01563 30,9.9999994 0 0 1 -1.953125,-0.06445 30,9.9999994 0 0 1 -1.9375,-0.105468 A 30,9.9999994 0 0 1 22.236328,41.660156 30,9.9999994 0 0 1 20.357422,41.46875 30,9.9999994 0 0 1 18.519531,41.238281 30,9.9999994 0 0 1 16.730469,40.96875 30,9.9999994 0 0 1 15,40.660156 30,9.9999994 0 0 1 13.332031,40.314453 30,9.9999994 0 0 1 11.736328,39.933594 30,9.9999994 0 0 1 11.5,39.871094 Z m 37,0 a 30,9.9999994 0 0 1 -0.236328,0.0625 30,9.9999994 0 0 1 -1.595703,0.380859 A 30,9.9999994 0 0 1 45,40.660156 a 30,9.9999994 0 0 1 -1.730469,0.308594 30,9.9999994 0 0 1 -1.789062,0.269531 30,9.9999994 0 0 1 -1.837891,0.230469 30,9.9999994 0 0 1 -1.878906,0.191406 30,9.9999994 0 0 1 -1.910156,0.148438 30,9.9999994 0 0 1 -1.9375,0.105468 30,9.9999994 0 0 1 -1.953125,0.06445 A 30,9.9999994 0 0 1 31,41.994141 v 14 a 30,9.9999993 0 0 0 17.5,-2.126953 z"
         transform="scale(0.26458333)" />
      <path
         id="path6788"
         style="fill:#f2dfd9;fill-opacity:1;stroke-width:1.03999"
         d="M 30,20 A 30,9.9999994 0 0 0 0,30 30,9.9999994 0 0 0 30,40 30,9.9999994 0 0 0 60,30 30,9.9999994 0 0 0 41.380859,20.748047 l -1.28125,0.783203 -0.945312,1.892578 A 27.000001,6.9999998 0 0 1 57,30 27.000001,6.9999998 0 0 1 30,37 27.000001,6.9999998 0 0 1 3,30 27.000001,6.9999998 0 0 1 26.0625,23.076172 l 5.023438,-3.06836 A 30,9.9999994 0 0 0 30,20 Z"
         transform="scale(0.26458333)" />
      <path
         id="path6211-51"
         style="fill:#f2dfd9;fill-opacity:1;stroke-width:0.23737"
         d="M 5.9712786,6.8255677 A 0.6614583,0.6614583 0 0 0 5.7517121,7.7348775 0.6614583,0.6614583 0 0 0 6.6610219,7.9544451 0.6614583,0.6614583 0 0 0 6.9709131,7.3000088 L 14.130463,2.9255312 13.854566,2.4739809 6.6954565,6.8481886 A 0.6614583,0.6614583 0 0 0 5.9712786,6.8255677 Z" />
      <path
         id="path6211-51-8"
         style="fill:#f2dfd9;fill-opacity:1;stroke-width:0.23737"
         d="M 7.664243,8.3365171 A 0.6614583,0.6614583 0 0 0 7.9603342,9.2238635 0.6614583,0.6614583 0 0 0 8.8476812,8.9277732 0.6614583,0.6614583 0 0 0 8.7633343,8.2086036 L 12.513191,0.70302006 12.039816,0.46651818 8.2901897,7.9716391 A 0.6614583,0.6614583 0 0 0 7.664243,8.3365171 Z" />
    </g>
    <g
       id="g20529"
       transform="rotate(-3.2522774,2011.8436,-575.01224)">
      <path
         id="path12786"
         style="fill:#f2dfd9;fill-opacity:1;stroke-width:0.957426"
         d="m 68,15 a 28,4.9999994 0 0 1 -28,5 h -4 v -2 h -2 v 2 h -3 v -2 h -2 v 2 h -3 v -2 h -2 v 2 H 20 A 9.9999993,9.9999993 0 0 0 10,30 9.9999993,9.9999993 0 0 0 20,40 H 40 A 9.9999993,9.9999993 0 0 0 50,30 9.9999993,9.9999993 0 0 0 49.587891,27.212891 26,3 0 0 0 44.023438,27.037109 4.9999994,4.9999994 0 0 1 45,30 4.9999994,4.9999994 0 0 1 40,35 h -4 v -8 h -2 v 8 h -3 v -8 h -2 v 8 h -3 v -8 h -2 v 8 h -4 a 4.9999994,4.9999994 0 0 1 -5,-5 4.9999994,4.9999994 0 0 1 5,-5 h 20 a 28,4.9999995 0 0 1 8.800781,0.253906 9.9999993,9.9999993 0 0 0 0,-0.002 28,4.9999995 0 0 1 2.203125,0.150391 28,4.9999995 0 0 1 3.353516,0.304687 28,4.9999995 0 0 1 0.0039,0 28,4.9999995 0 0 1 0.111328,0.01172 28,4.9999995 0 0 1 0.953125,0.107422 28,4.9999995 0 0 1 1.03125,0.128906 28,4.9999995 0 0 1 1.964844,0.279297 28,4.9999995 0 0 1 1.816406,0.310547 28,4.9999995 0 0 1 2.414063,0.515625 28,4.9999995 0 0 1 0.04883,0.01172 28,4.9999995 0 0 1 1.335937,0.363281 28,4.9999995 0 0 1 1.189453,0.394531 28,4.9999995 0 0 1 0.02734,0.0098 28,4.9999995 0 0 1 0.960938,0.402344 28,4.9999995 0 0 1 0.01758,0.0078 28,4.9999995 0 0 1 0.396484,0.205078 28,4.9999995 0 0 1 0.361328,0.214844 28,4.9999995 0 0 1 0.283204,0.199219 28,4.9999995 0 0 1 0.02539,0.01758 28,4.9999995 0 0 1 0.01953,0.01758 28,4.9999995 0 0 1 0.228516,0.199219 28,4.9999995 0 0 1 0.0039,0.0039 28,4.9999995 0 0 1 0.0039,0.0039 28,4.9999995 0 0 1 0.191406,0.216797 28,4.9999995 0 0 1 0.0039,0.0039 28,4.9999995 0 0 1 0.21875,0.433594 28,4.9999995 0 0 1 0.0039,0.0098 28,4.9999995 0 0 1 0,0.002 28,4.9999995 0 0 1 0,0.002 28,4.9999995 0 0 1 0,0.002 A 28,4.9999995 0 0 1 68,30 h 2 V 15 Z"
         transform="scale(0.26458333)" />
      <path
         id="rect15867"
         style="fill:#f2dfd9;fill-opacity:1;stroke-width:1.00647"
         d="m 0,17.5 v 2.5 5 2.5 H 2 A 2.4999999,2.4999999 0 0 1 4.5,25 H 9.1152344 A 12,12 0 0 1 13.390625,20 H 4.5 A 2.4999999,2.4999999 0 0 1 2,17.5 Z"
         transform="scale(0.26458333)" />
      <rect
         style="fill:#f2dfd9;fill-opacity:1;stroke-width:0.324047"
         id="rect19058"
         width="0.52916664"
         height="3.96875"
         x="17.991667"
         y="3.96875" />
    </g>
  </g>
</svg>
