<?xml version="1.0" encoding="UTF-8" standalone="no"?>
<!-- Created with Inkscape (http://www.inkscape.org/) -->

<svg
   width="60"
   height="60"
   viewBox="0 0 15.875 15.875"
   version="1.1"
   id="svg5"
   inkscape:version="1.1.2 (0a00cf5339, 2022-02-04, custom)"
   sodipodi:docname="xylophone.svg"
   xmlns:inkscape="http://www.inkscape.org/namespaces/inkscape"
   xmlns:sodipodi="http://sodipodi.sourceforge.net/DTD/sodipodi-0.dtd"
   xmlns="http://www.w3.org/2000/svg"
   xmlns:svg="http://www.w3.org/2000/svg">
  <sodipodi:namedview
     id="namedview7"
     pagecolor="#ffffff"
     bordercolor="#666666"
     borderopacity="1.0"
     inkscape:pageshadow="2"
     inkscape:pageopacity="0.0"
     inkscape:pagecheckerboard="0"
     inkscape:document-units="mm"
     showgrid="false"
     units="px"
     inkscape:zoom="7.401051"
     inkscape:cx="21.280761"
     inkscape:cy="30.130856"
     inkscape:window-width="1600"
     inkscape:window-height="837"
     inkscape:window-x="-8"
     inkscape:window-y="-8"
     inkscape:window-maximized="1"
     inkscape:current-layer="layer1" />
  <defs
     id="defs2" />
  <g
     inkscape:label="Calque 1"
     inkscape:groupmode="layer"
     id="layer1">
    <path
       id="rect846"
       style="fill:#000000;stroke-width:1.46351"
       d="M 0 0 L 0 60 L 4 60 L 15.5 60 L 19.5 60 L 19.5 57 L 29 57 L 33 57 L 33 54 L 42.5 54 L 46.5 54 L 46.5 51 L 56 51 L 60 51 L 60 9 L 56 9 L 46.5 9 L 46.5 6 L 42.5 6 L 33 6 L 33 3 L 29 3 L 19.5 3 L 19.5 0 L 15.5 0 L 4 0 L 0 0 z "
       transform="scale(0.26458333)" />
    <path
       style="fill:#bb6439;fill-opacity:1;stroke:none;stroke-width:0.264583px;stroke-linecap:butt;stroke-linejoin:miter;stroke-opacity:1"
       d="m 2.1828125,13.692189 11.5093785,-2.38125 v -0.79375 l -11.5093785,2.38125 z"
       id="path12466-4" />
    <path
       style="fill:#bb6439;stroke:none;stroke-width:0.264583px;stroke-linecap:butt;stroke-linejoin:miter;stroke-opacity:1;fill-opacity:1"
       d="m 2.1828124,2.1828124 11.5093756,2.38125 v 0.79375 L 2.1828124,2.9765625 Z"
       id="path12466" />
    <rect
       style="fill:#ff8d00;fill-opacity:1;stroke-width:0.108946"
       id="rect1278-0-0"
       width="3.0427084"
       height="12.170834"
       x="4.6302094"
       y="1.8520833" />
    <rect
       style="fill:#cc000d;stroke-width:0.115834;fill-opacity:1"
       id="rect1278-7"
       width="3.0427084"
       height="13.758333"
       x="1.0583333"
       y="1.0583333" />
    <rect
       style="fill:#009700;fill-opacity:1;stroke-width:0.101594"
       id="rect1278-6-7"
       width="3.0427084"
       height="10.583333"
       x="8.2020845"
       y="2.645833" />
    <rect
       style="fill:#0051b5;stroke-width:0.0936641;fill-opacity:1"
       id="rect1278-0-2-2"
       width="3.0427084"
       height="8.9958334"
       x="11.773959"
       y="3.4395833" />
    <path
       style="fill:#d2d2d2;fill-opacity:1"
       id="path7555"
       sodipodi:type="arc"
       sodipodi:cx="2.5796876"
       sodipodi:cy="2.5796876"
       sodipodi:rx="0.66145831"
       sodipodi:ry="0.66145831"
       sodipodi:start="0.013480801"
       sodipodi:end="0"
       sodipodi:open="true"
       sodipodi:arc-type="arc"
       d="M 3.2410858,2.5886043 A 0.66145831,0.66145831 0 0 1 2.573,3.2411121 0.66145831,0.66145831 0 0 1 1.9182443,2.5752291 0.66145831,0.66145831 0 0 1 2.5819168,1.918233 0.66145831,0.66145831 0 0 1 3.2411459,2.5796876" />
    <path
       style="fill:#d2d2d2;fill-opacity:1"
       id="path7555-1"
       sodipodi:type="arc"
       sodipodi:cx="6.1515636"
       sodipodi:cy="3.3734376"
       sodipodi:rx="0.66145831"
       sodipodi:ry="0.66145831"
       sodipodi:start="0.013480801"
       sodipodi:end="0"
       sodipodi:open="true"
       sodipodi:arc-type="arc"
       d="M 6.8129619,3.3823544 A 0.66145831,0.66145831 0 0 1 6.144876,4.0348621 0.66145831,0.66145831 0 0 1 5.4901204,3.3689792 0.66145831,0.66145831 0 0 1 6.1537929,2.7119831 0.66145831,0.66145831 0 0 1 6.813022,3.3734376" />
    <path
       style="fill:#d2d2d2;fill-opacity:1"
       id="path7555-9"
       sodipodi:type="arc"
       sodipodi:cx="9.7234383"
       sodipodi:cy="4.1671872"
       sodipodi:rx="0.66145831"
       sodipodi:ry="0.66145831"
       sodipodi:start="0.013480801"
       sodipodi:end="0"
       sodipodi:open="true"
       sodipodi:arc-type="arc"
       d="M 10.384836,4.1761039 A 0.66145831,0.66145831 0 0 1 9.7167506,4.8286117 0.66145831,0.66145831 0 0 1 9.061995,4.1627288 0.66145831,0.66145831 0 0 1 9.7256675,3.5057327 0.66145831,0.66145831 0 0 1 10.384897,4.1671872" />
    <path
       style="fill:#d2d2d2;fill-opacity:1"
       id="path7555-6"
       sodipodi:type="arc"
       sodipodi:cx="13.295313"
       sodipodi:cy="4.9609375"
       sodipodi:rx="0.66145831"
       sodipodi:ry="0.66145831"
       sodipodi:start="0.013480801"
       sodipodi:end="0"
       sodipodi:open="true"
       sodipodi:arc-type="arc"
       d="M 13.956711,4.9698542 A 0.66145831,0.66145831 0 0 1 13.288625,5.622362 0.66145831,0.66145831 0 0 1 12.63387,4.956479 0.66145831,0.66145831 0 0 1 13.297542,4.2994829 0.66145831,0.66145831 0 0 1 13.956771,4.9609375" />
    <path
       style="fill:#d2d2d2;fill-opacity:1"
       id="path7555-91"
       sodipodi:type="arc"
       sodipodi:cx="2.5796881"
       sodipodi:cy="-13.295312"
       sodipodi:rx="0.66145831"
       sodipodi:ry="0.66145831"
       sodipodi:start="0.013480801"
       sodipodi:end="0"
       sodipodi:open="true"
       sodipodi:arc-type="arc"
       d="m 3.2410863,-13.286395 a 0.66145831,0.66145831 0 0 1 -0.6680859,0.652508 0.66145831,0.66145831 0 0 1 -0.6547556,-0.665883 0.66145831,0.66145831 0 0 1 0.6636725,-0.656996 0.66145831,0.66145831 0 0 1 0.6592291,0.661454"
       transform="scale(1,-1)" />
    <path
       style="fill:#d2d2d2;fill-opacity:1"
       id="path7555-91-7"
       sodipodi:type="arc"
       sodipodi:cx="6.1515641"
       sodipodi:cy="-12.501562"
       sodipodi:rx="0.66145831"
       sodipodi:ry="0.66145831"
       sodipodi:start="0.013480801"
       sodipodi:end="0"
       sodipodi:open="true"
       sodipodi:arc-type="arc"
       transform="scale(1,-1)"
       d="m 6.8129623,-12.492645 a 0.66145831,0.66145831 0 0 1 -0.6680858,0.652507 0.66145831,0.66145831 0 0 1 -0.6547557,-0.665883 0.66145831,0.66145831 0 0 1 0.6636726,-0.656996 0.66145831,0.66145831 0 0 1 0.659229,0.661455" />
    <path
       style="fill:#d2d2d2;fill-opacity:1"
       id="path7555-91-8"
       sodipodi:type="arc"
       sodipodi:cx="9.7234392"
       sodipodi:cy="-11.707811"
       sodipodi:rx="0.66145831"
       sodipodi:ry="0.66145831"
       sodipodi:start="0.013480801"
       sodipodi:end="0"
       sodipodi:open="true"
       sodipodi:arc-type="arc"
       transform="scale(1,-1)"
       d="m 10.384837,-11.698895 a 0.66145831,0.66145831 0 0 1 -0.6680854,0.652508 0.66145831,0.66145831 0 0 1 -0.6547557,-0.665883 0.66145831,0.66145831 0 0 1 0.6636726,-0.656996 0.66145831,0.66145831 0 0 1 0.6592295,0.661455" />
    <path
       style="fill:#d2d2d2;fill-opacity:1"
       id="path7555-91-9"
       sodipodi:type="arc"
       sodipodi:cx="13.295314"
       sodipodi:cy="-10.914063"
       sodipodi:rx="0.66145831"
       sodipodi:ry="0.66145831"
       sodipodi:start="0.013480801"
       sodipodi:end="0"
       sodipodi:open="true"
       sodipodi:arc-type="arc"
       transform="scale(1,-1)"
       d="m 13.956712,-10.905147 a 0.66145831,0.66145831 0 0 1 -0.668086,0.652508 0.66145831,0.66145831 0 0 1 -0.654755,-0.665883 0.66145831,0.66145831 0 0 1 0.663672,-0.656996 0.66145831,0.66145831 0 0 1 0.659229,0.661455" />
  </g>
</svg>
